<svg id="Ebene_1" data-name="Ebene 1" xmlns="http://www.w3.org/2000/svg" xmlns:xlink="http://www.w3.org/1999/xlink" viewBox="0 0 902.45 276.77"><defs><style>.cls-1,.cls-3{fill:none;}.cls-2{clip-path:url(#clip-path);}.cls-3{stroke:#c95b28;stroke-miterlimit:10;}</style><clipPath id="clip-path" transform="translate(-199.69 -121.23)"><rect class="cls-1" x="-699" y="-684" width="1994.95" height="2370"/></clipPath></defs><title>zigzagorange</title><g class="cls-2"><polyline class="cls-3" points="0.37 0.73 10.27 11.37 20.18 0.73 30.09 11.37 39.99 0.73 49.9 11.37 59.8 0.73 69.7 11.37 79.6 0.73 89.5 11.37 99.4 0.73 109.31 11.37 119.22 0.73 129.13 11.37 139.03 0.73 148.94 11.37 158.84 0.73 168.74 11.37 178.64 0.73 188.55 11.37 198.45 0.73 208.36 11.37 218.27 0.73 228.18 11.37 238.08 0.73 247.99 11.37 257.89 0.73 267.8 11.37 277.71 0.73 287.62 11.37 297.52 0.73 307.43 11.37 317.33 0.73 327.24 11.37 337.15 0.73 347.06 11.37 356.96 0.73 366.87 11.37 376.78 0.73 386.69 11.37 396.6 0.73 406.5 11.37 416.41 0.73 426.32 11.37 436.23 0.73 446.14 11.37 456.05 0.73 465.96 11.37 475.87 0.73 485.78 11.37 495.68 0.73 505.59 11.37 515.5 0.73 525.41 11.37 535.32 0.73 545.23 11.37 555.14 0.73 565.05 11.37 574.97 0.73 584.87 11.37 594.77 0.73 604.67 11.37 614.59 0.73 624.49 11.37 634.4 0.73 644.31 11.37 654.22 0.73 664.12 11.37 674.03 0.73 683.95 11.37 693.85 0.73 703.76 11.37 713.68 0.73 723.59 11.37 733.5 0.73 743.41 11.37 753.33 0.73 763.24 11.37 773.16 0.73 783.07 11.37 792.99 0.73 802.9 11.37 812.81 0.73 822.72 11.37 832.64 0.73 842.55 11.37 852.47 0.73 862.39 11.37 872.3 0.73 882.23 11.37 892.16 0.73 902.08 11.37"/><polyline class="cls-3" points="0.37 143.04 10.27 153.68 20.18 143.04 30.09 153.68 39.99 143.04 49.9 153.68 59.8 143.04 69.7 153.68 79.6 143.04 89.5 153.68 99.4 143.04 109.31 153.68 119.22 143.04 129.13 153.68 139.03 143.04 148.94 153.68 158.84 143.04 168.74 153.68 178.64 143.04 188.55 153.68 198.45 143.04 208.36 153.68 218.27 143.04 228.18 153.68 238.08 143.04 247.99 153.68 257.89 143.04 267.8 153.68 277.71 143.04 287.62 153.68 297.52 143.04 307.43 153.68 317.33 143.04 327.24 153.68 337.15 143.04 347.06 153.68 356.96 143.04 366.87 153.68 376.78 143.04 386.69 153.68 396.6 143.04 406.5 153.68 416.41 143.04 426.32 153.68 436.23 143.04 446.14 153.68 456.05 143.04 465.96 153.68 475.87 143.04 485.78 153.68 495.68 143.04 505.59 153.68 515.5 143.04 525.41 153.68 535.32 143.04 545.23 153.68 555.14 143.04 565.05 153.68 574.97 143.04 584.87 153.68 594.77 143.04 604.67 153.68 614.59 143.04 624.49 153.68 634.4 143.04 644.31 153.68 654.22 143.04 664.12 153.68 674.03 143.04 683.95 153.68 693.85 143.04 703.76 153.68 713.68 143.04 723.59 153.68 733.5 143.04 743.41 153.68 753.33 143.04 763.24 153.68 773.16 143.04 783.07 153.68 792.99 143.04 802.9 153.68 812.81 143.04 822.72 153.68 832.64 143.04 842.55 153.68 852.47 143.04 862.39 153.68 872.3 143.04 882.23 153.68 892.16 143.04 902.08 153.68"/><polyline class="cls-3" points="0.37 71.22 10.27 81.86 20.18 71.22 30.09 81.86 39.99 71.22 49.9 81.86 59.8 71.22 69.7 81.86 79.6 71.22 89.5 81.86 99.4 71.22 109.31 81.86 119.22 71.22 129.13 81.86 139.03 71.22 148.94 81.86 158.84 71.22 168.74 81.86 178.64 71.22 188.55 81.86 198.45 71.22 208.36 81.86 218.27 71.22 228.18 81.86 238.08 71.22 247.99 81.86 257.89 71.22 267.8 81.86 277.71 71.22 287.62 81.86 297.52 71.22 307.43 81.86 317.33 71.22 327.24 81.86 337.15 71.22 347.06 81.86 356.96 71.22 366.87 81.86 376.78 71.22 386.69 81.86 396.6 71.22 406.5 81.86 416.41 71.22 426.32 81.86 436.23 71.22 446.14 81.86 456.05 71.22 465.96 81.86 475.87 71.22 485.78 81.86 495.68 71.22 505.59 81.86 515.5 71.22 525.41 81.86 535.32 71.22 545.23 81.86 555.14 71.22 565.05 81.86 574.97 71.22 584.87 81.86 594.77 71.22 604.67 81.86 614.59 71.22 624.49 81.86 634.4 71.22 644.31 81.86 654.22 71.22 664.12 81.86 674.03 71.22 683.95 81.86 693.85 71.22 703.76 81.86 713.68 71.22 723.59 81.86 733.5 71.22 743.41 81.86 753.33 71.22 763.24 81.86 773.16 71.22 783.07 81.86 792.99 71.22 802.9 81.86 812.81 71.22 822.72 81.86 832.64 71.22 842.55 81.86 852.47 71.22 862.39 81.86 872.3 71.22 882.23 81.86 892.16 71.22 902.08 81.86"/><polyline class="cls-3" points="0.37 213.53 10.27 224.17 20.18 213.53 30.09 224.17 39.99 213.53 49.9 224.17 59.8 213.53 69.7 224.17 79.6 213.53 89.5 224.17 99.4 213.53 109.31 224.17 119.22 213.53 129.13 224.17 139.03 213.53 148.94 224.17 158.84 213.53 168.74 224.17 178.64 213.53 188.55 224.17 198.45 213.53 208.36 224.17 218.27 213.53 228.18 224.17 238.08 213.53 247.99 224.17 257.89 213.53 267.8 224.17 277.71 213.53 287.62 224.17 297.52 213.53 307.43 224.17 317.33 213.53 327.24 224.17 337.15 213.53 347.06 224.17 356.96 213.53 366.87 224.17 376.78 213.53 386.69 224.17 396.6 213.53 406.5 224.17 416.41 213.53 426.32 224.17 436.23 213.53 446.14 224.17 456.05 213.53 465.96 224.17 475.87 213.53 485.78 224.17 495.68 213.53 505.59 224.17 515.5 213.53 525.41 224.17 535.32 213.53 545.23 224.17 555.14 213.53 565.05 224.17 574.97 213.53 584.87 224.17 594.77 213.53 604.67 224.17 614.59 213.53 624.49 224.17 634.4 213.53 644.31 224.17 654.22 213.53 664.12 224.17 674.03 213.53 683.95 224.17 693.85 213.53 703.76 224.17 713.68 213.53 723.59 224.17 733.5 213.53 743.41 224.17 753.33 213.53 763.24 224.17 773.16 213.53 783.07 224.17 792.99 213.53 802.9 224.17 812.81 213.53 822.72 224.17 832.64 213.53 842.55 224.17 852.47 213.53 862.39 224.17 872.3 213.53 882.23 224.17 892.16 213.53 902.08 224.17"/><polyline class="cls-3" points="0.37 19.35 10.27 29.99 20.18 19.35 30.09 29.99 39.99 19.35 49.9 29.99 59.8 19.35 69.7 29.99 79.6 19.35 89.5 29.99 99.4 19.35 109.31 29.99 119.22 19.35 129.13 29.99 139.03 19.35 148.94 29.99 158.84 19.35 168.74 29.99 178.64 19.35 188.55 29.99 198.45 19.35 208.36 29.99 218.27 19.35 228.18 29.99 238.08 19.35 247.99 29.99 257.89 19.35 267.8 29.99 277.71 19.35 287.62 29.99 297.52 19.35 307.43 29.99 317.33 19.35 327.24 29.99 337.15 19.35 347.06 29.99 356.96 19.35 366.87 29.99 376.78 19.35 386.69 29.99 396.6 19.35 406.5 29.99 416.41 19.35 426.32 29.99 436.23 19.35 446.14 29.99 456.05 19.35 465.96 29.99 475.87 19.35 485.78 29.99 495.68 19.35 505.59 29.99 515.5 19.35 525.41 29.99 535.32 19.35 545.23 29.99 555.14 19.35 565.05 29.99 574.97 19.35 584.87 29.99 594.77 19.35 604.67 29.99 614.59 19.35 624.49 29.99 634.4 19.35 644.31 29.99 654.22 19.35 664.12 29.99 674.03 19.35 683.95 29.99 693.85 19.35 703.76 29.99 713.68 19.35 723.59 29.99 733.5 19.35 743.41 29.99 753.33 19.35 763.24 29.99 773.16 19.35 783.07 29.99 792.99 19.35 802.9 29.99 812.81 19.35 822.72 29.99 832.64 19.35 842.55 29.99 852.47 19.35 862.39 29.99 872.3 19.35 882.23 29.99 892.16 19.35 902.08 29.99"/><polyline class="cls-3" points="0.37 160.33 10.27 170.97 20.18 160.33 30.09 170.97 39.99 160.33 49.9 170.97 59.8 160.33 69.7 170.97 79.6 160.33 89.5 170.97 99.4 160.33 109.31 170.97 119.22 160.33 129.13 170.97 139.03 160.33 148.94 170.97 158.84 160.33 168.74 170.97 178.64 160.33 188.55 170.97 198.45 160.33 208.36 170.97 218.27 160.33 228.18 170.97 238.08 160.33 247.99 170.97 257.89 160.33 267.8 170.97 277.71 160.33 287.62 170.97 297.52 160.33 307.43 170.97 317.33 160.33 327.24 170.97 337.15 160.33 347.06 170.97 356.96 160.33 366.87 170.97 376.78 160.33 386.69 170.97 396.6 160.33 406.5 170.97 416.41 160.33 426.32 170.97 436.23 160.33 446.14 170.97 456.05 160.33 465.96 170.97 475.87 160.33 485.78 170.97 495.68 160.33 505.59 170.97 515.5 160.33 525.41 170.97 535.32 160.33 545.23 170.97 555.14 160.33 565.05 170.97 574.97 160.33 584.87 170.97 594.77 160.33 604.67 170.97 614.59 160.33 624.49 170.97 634.4 160.33 644.31 170.97 654.22 160.33 664.12 170.97 674.03 160.33 683.95 170.97 693.85 160.33 703.76 170.97 713.68 160.33 723.59 170.97 733.5 160.33 743.41 170.97 753.33 160.33 763.24 170.97 773.16 160.33 783.07 170.97 792.99 160.33 802.9 170.97 812.81 160.33 822.72 170.97 832.64 160.33 842.55 170.97 852.47 160.33 862.39 170.97 872.3 160.33 882.23 170.97 892.16 160.33 902.08 170.97"/><polyline class="cls-3" points="0.37 88.51 10.27 99.15 20.18 88.51 30.09 99.15 39.99 88.51 49.9 99.15 59.8 88.51 69.7 99.15 79.6 88.51 89.5 99.15 99.4 88.51 109.31 99.15 119.22 88.51 129.13 99.15 139.03 88.51 148.94 99.15 158.84 88.51 168.74 99.15 178.64 88.51 188.55 99.15 198.45 88.51 208.36 99.15 218.27 88.51 228.18 99.15 238.08 88.51 247.99 99.15 257.89 88.51 267.8 99.15 277.71 88.51 287.62 99.15 297.52 88.51 307.43 99.15 317.33 88.51 327.24 99.15 337.15 88.51 347.06 99.15 356.96 88.51 366.87 99.15 376.78 88.51 386.69 99.15 396.6 88.51 406.5 99.15 416.41 88.51 426.32 99.15 436.23 88.51 446.14 99.15 456.05 88.51 465.96 99.15 475.87 88.51 485.78 99.15 495.68 88.51 505.59 99.15 515.5 88.51 525.41 99.15 535.32 88.51 545.23 99.15 555.14 88.51 565.05 99.15 574.97 88.51 584.87 99.15 594.77 88.51 604.67 99.15 614.59 88.51 624.49 99.15 634.4 88.51 644.31 99.15 654.22 88.51 664.12 99.15 674.03 88.51 683.95 99.15 693.85 88.51 703.76 99.15 713.68 88.51 723.59 99.15 733.5 88.51 743.41 99.15 753.33 88.51 763.24 99.15 773.16 88.51 783.07 99.15 792.99 88.51 802.9 99.15 812.81 88.51 822.72 99.15 832.64 88.51 842.55 99.15 852.47 88.51 862.39 99.15 872.3 88.51 882.23 99.15 892.16 88.51 902.08 99.15"/><polyline class="cls-3" points="0.37 230.82 10.27 241.46 20.18 230.82 30.09 241.46 39.99 230.82 49.9 241.46 59.8 230.82 69.7 241.46 79.6 230.82 89.5 241.46 99.4 230.82 109.31 241.46 119.22 230.82 129.13 241.46 139.03 230.82 148.94 241.46 158.84 230.82 168.74 241.46 178.64 230.82 188.55 241.46 198.45 230.82 208.36 241.46 218.27 230.82 228.18 241.46 238.08 230.82 247.99 241.46 257.89 230.82 267.8 241.46 277.71 230.82 287.62 241.46 297.52 230.82 307.43 241.46 317.33 230.82 327.24 241.46 337.15 230.82 347.06 241.46 356.96 230.82 366.87 241.46 376.78 230.82 386.69 241.46 396.6 230.82 406.5 241.46 416.41 230.82 426.32 241.46 436.23 230.82 446.14 241.46 456.05 230.82 465.96 241.46 475.87 230.82 485.78 241.46 495.68 230.82 505.59 241.46 515.5 230.82 525.41 241.46 535.32 230.82 545.23 241.46 555.14 230.82 565.05 241.46 574.97 230.82 584.87 241.46 594.77 230.82 604.67 241.46 614.59 230.82 624.49 241.46 634.4 230.82 644.31 241.46 654.22 230.82 664.12 241.46 674.03 230.82 683.95 241.46 693.85 230.82 703.76 241.46 713.68 230.82 723.59 241.46 733.5 230.82 743.41 241.46 753.33 230.82 763.24 241.46 773.16 230.82 783.07 241.46 792.99 230.82 802.9 241.46 812.81 230.82 822.72 241.46 832.64 230.82 842.55 241.46 852.47 230.82 862.39 241.46 872.3 230.82 882.23 241.46 892.16 230.82 902.08 241.46"/><polyline class="cls-3" points="0.37 36.64 10.27 47.28 20.18 36.64 30.09 47.28 39.99 36.64 49.9 47.28 59.8 36.64 69.7 47.28 79.6 36.64 89.5 47.28 99.4 36.64 109.31 47.28 119.22 36.64 129.13 47.28 139.03 36.64 148.94 47.28 158.84 36.64 168.74 47.28 178.64 36.64 188.55 47.28 198.45 36.64 208.36 47.28 218.27 36.64 228.18 47.28 238.08 36.64 247.99 47.28 257.89 36.64 267.8 47.28 277.71 36.64 287.62 47.28 297.52 36.64 307.43 47.28 317.33 36.64 327.24 47.28 337.15 36.64 347.06 47.28 356.96 36.64 366.87 47.28 376.78 36.64 386.69 47.28 396.6 36.64 406.5 47.28 416.41 36.64 426.32 47.28 436.23 36.64 446.14 47.28 456.05 36.64 465.96 47.28 475.87 36.64 485.78 47.28 495.68 36.64 505.59 47.28 515.5 36.64 525.41 47.28 535.32 36.64 545.23 47.28 555.14 36.64 565.05 47.28 574.97 36.64 584.87 47.28 594.77 36.64 604.67 47.28 614.59 36.64 624.49 47.28 634.4 36.64 644.31 47.28 654.22 36.64 664.12 47.28 674.03 36.64 683.95 47.28 693.85 36.64 703.76 47.28 713.68 36.64 723.59 47.28 733.5 36.64 743.41 47.28 753.33 36.64 763.24 47.28 773.16 36.64 783.07 47.28 792.99 36.64 802.9 47.28 812.81 36.64 822.72 47.28 832.64 36.64 842.55 47.28 852.47 36.64 862.39 47.28 872.3 36.64 882.23 47.28 892.16 36.64 902.08 47.28"/><polyline class="cls-3" points="0.37 177.62 10.27 188.26 20.18 177.62 30.09 188.26 39.99 177.62 49.9 188.26 59.8 177.62 69.7 188.26 79.6 177.62 89.5 188.26 99.4 177.62 109.31 188.26 119.22 177.62 129.13 188.26 139.03 177.62 148.94 188.26 158.84 177.62 168.74 188.26 178.64 177.62 188.55 188.26 198.45 177.62 208.36 188.26 218.27 177.62 228.18 188.26 238.08 177.62 247.99 188.26 257.89 177.62 267.8 188.26 277.71 177.62 287.62 188.26 297.52 177.62 307.43 188.26 317.33 177.62 327.24 188.26 337.15 177.62 347.06 188.26 356.96 177.62 366.87 188.26 376.78 177.62 386.69 188.26 396.6 177.62 406.5 188.26 416.41 177.62 426.32 188.26 436.23 177.62 446.14 188.26 456.05 177.62 465.96 188.26 475.87 177.62 485.78 188.26 495.68 177.62 505.59 188.26 515.5 177.62 525.41 188.26 535.32 177.62 545.23 188.26 555.14 177.62 565.05 188.26 574.97 177.62 584.87 188.26 594.77 177.62 604.67 188.26 614.59 177.62 624.49 188.26 634.4 177.62 644.31 188.26 654.22 177.62 664.12 188.26 674.03 177.62 683.95 188.26 693.85 177.62 703.76 188.26 713.68 177.62 723.59 188.26 733.5 177.62 743.41 188.26 753.33 177.62 763.24 188.26 773.16 177.62 783.07 188.26 792.99 177.62 802.9 188.26 812.81 177.62 822.72 188.26 832.64 177.62 842.55 188.26 852.47 177.62 862.39 188.26 872.3 177.62 882.23 188.26 892.16 177.62 902.08 188.26"/><polyline class="cls-3" points="0.37 105.8 10.27 116.44 20.18 105.8 30.09 116.44 39.99 105.8 49.9 116.44 59.8 105.8 69.7 116.44 79.6 105.8 89.5 116.44 99.4 105.8 109.31 116.44 119.22 105.8 129.13 116.44 139.03 105.8 148.94 116.44 158.84 105.8 168.74 116.44 178.64 105.8 188.55 116.44 198.45 105.8 208.36 116.44 218.27 105.8 228.18 116.44 238.08 105.8 247.99 116.44 257.89 105.8 267.8 116.44 277.71 105.8 287.62 116.44 297.52 105.8 307.43 116.44 317.33 105.8 327.24 116.44 337.15 105.8 347.06 116.44 356.96 105.8 366.87 116.44 376.78 105.8 386.69 116.44 396.6 105.8 406.5 116.44 416.41 105.8 426.32 116.44 436.23 105.8 446.14 116.44 456.05 105.8 465.96 116.44 475.87 105.8 485.78 116.44 495.68 105.8 505.59 116.44 515.5 105.8 525.41 116.44 535.32 105.8 545.23 116.44 555.14 105.8 565.05 116.44 574.97 105.8 584.87 116.44 594.77 105.8 604.67 116.44 614.59 105.8 624.49 116.44 634.4 105.8 644.31 116.44 654.22 105.8 664.12 116.44 674.03 105.8 683.95 116.44 693.85 105.8 703.76 116.44 713.68 105.8 723.59 116.44 733.5 105.8 743.41 116.44 753.33 105.8 763.24 116.44 773.16 105.8 783.07 116.44 792.99 105.8 802.9 116.44 812.81 105.8 822.72 116.44 832.64 105.8 842.55 116.44 852.47 105.8 862.39 116.44 872.3 105.8 882.23 116.44 892.16 105.8 902.08 116.44"/><polyline class="cls-3" points="0.37 248.11 10.27 258.75 20.18 248.11 30.09 258.75 39.99 248.11 49.9 258.75 59.8 248.11 69.7 258.75 79.6 248.11 89.5 258.75 99.4 248.11 109.31 258.75 119.22 248.11 129.13 258.75 139.03 248.11 148.94 258.75 158.84 248.11 168.74 258.75 178.64 248.11 188.55 258.75 198.45 248.11 208.36 258.75 218.27 248.11 228.18 258.75 238.08 248.11 247.99 258.75 257.89 248.11 267.8 258.75 277.71 248.11 287.62 258.75 297.52 248.11 307.43 258.75 317.33 248.11 327.24 258.75 337.15 248.11 347.06 258.75 356.96 248.11 366.87 258.75 376.78 248.11 386.69 258.75 396.6 248.11 406.5 258.75 416.41 248.11 426.32 258.75 436.23 248.11 446.14 258.75 456.05 248.11 465.96 258.75 475.87 248.11 485.78 258.75 495.68 248.11 505.59 258.75 515.5 248.11 525.41 258.75 535.32 248.11 545.23 258.75 555.14 248.11 565.05 258.75 574.97 248.11 584.87 258.75 594.77 248.11 604.67 258.75 614.59 248.11 624.49 258.75 634.4 248.11 644.31 258.75 654.22 248.11 664.12 258.75 674.03 248.11 683.95 258.75 693.85 248.11 703.76 258.75 713.68 248.11 723.59 258.75 733.5 248.11 743.41 258.75 753.33 248.11 763.24 258.75 773.16 248.11 783.07 258.75 792.99 248.11 802.9 258.75 812.81 248.11 822.72 258.75 832.64 248.11 842.55 258.75 852.47 248.11 862.39 258.75 872.3 248.11 882.23 258.75 892.16 248.11 902.08 258.75"/><polyline class="cls-3" points="0.37 53.93 10.27 64.57 20.18 53.93 30.09 64.57 39.99 53.93 49.9 64.57 59.8 53.93 69.7 64.57 79.6 53.93 89.5 64.57 99.4 53.93 109.31 64.57 119.22 53.93 129.13 64.57 139.03 53.93 148.94 64.57 158.84 53.93 168.74 64.57 178.64 53.93 188.55 64.57 198.45 53.93 208.36 64.57 218.27 53.93 228.18 64.57 238.08 53.93 247.99 64.57 257.89 53.93 267.8 64.57 277.71 53.93 287.62 64.57 297.52 53.93 307.43 64.57 317.33 53.93 327.24 64.57 337.15 53.93 347.06 64.57 356.96 53.93 366.87 64.57 376.78 53.93 386.69 64.57 396.6 53.93 406.5 64.57 416.41 53.93 426.32 64.57 436.23 53.93 446.14 64.57 456.05 53.93 465.96 64.57 475.87 53.93 485.78 64.57 495.68 53.93 505.59 64.57 515.5 53.93 525.41 64.57 535.32 53.93 545.23 64.57 555.14 53.93 565.05 64.57 574.97 53.93 584.87 64.57 594.77 53.93 604.67 64.57 614.59 53.93 624.49 64.57 634.4 53.93 644.31 64.57 654.22 53.93 664.12 64.57 674.03 53.93 683.95 64.57 693.85 53.93 703.76 64.57 713.68 53.93 723.59 64.57 733.5 53.93 743.41 64.57 753.33 53.93 763.24 64.57 773.16 53.93 783.07 64.57 792.99 53.93 802.9 64.57 812.81 53.93 822.72 64.57 832.64 53.93 842.55 64.57 852.47 53.93 862.39 64.57 872.3 53.93 882.23 64.57 892.16 53.93 902.08 64.57"/><polyline class="cls-3" points="0.37 194.91 10.27 205.55 20.18 194.91 30.09 205.55 39.99 194.91 49.9 205.55 59.8 194.91 69.7 205.55 79.6 194.91 89.5 205.55 99.4 194.91 109.31 205.55 119.22 194.91 129.13 205.55 139.03 194.91 148.94 205.55 158.84 194.91 168.74 205.55 178.64 194.91 188.55 205.55 198.45 194.91 208.36 205.55 218.27 194.91 228.18 205.55 238.08 194.91 247.99 205.55 257.89 194.91 267.8 205.55 277.71 194.91 287.62 205.55 297.52 194.91 307.43 205.55 317.33 194.91 327.24 205.55 337.15 194.91 347.06 205.55 356.96 194.91 366.87 205.55 376.78 194.91 386.69 205.55 396.6 194.91 406.5 205.55 416.41 194.91 426.32 205.55 436.23 194.91 446.14 205.55 456.05 194.91 465.96 205.55 475.87 194.91 485.78 205.55 495.68 194.91 505.59 205.55 515.5 194.91 525.41 205.55 535.32 194.91 545.23 205.55 555.14 194.91 565.05 205.55 574.97 194.91 584.87 205.55 594.77 194.91 604.67 205.55 614.59 194.91 624.49 205.55 634.4 194.91 644.31 205.55 654.22 194.91 664.12 205.55 674.03 194.91 683.95 205.55 693.85 194.91 703.76 205.55 713.68 194.91 723.59 205.55 733.5 194.91 743.41 205.55 753.33 194.91 763.24 205.55 773.16 194.91 783.07 205.55 792.99 194.91 802.9 205.55 812.81 194.91 822.72 205.55 832.64 194.91 842.55 205.55 852.47 194.91 862.39 205.55 872.3 194.91 882.23 205.55 892.16 194.91 902.08 205.55"/><polyline class="cls-3" points="0.37 124.42 10.27 135.06 20.18 124.42 30.09 135.06 39.99 124.42 49.9 135.06 59.8 124.42 69.7 135.06 79.6 124.42 89.5 135.06 99.4 124.42 109.31 135.06 119.22 124.42 129.13 135.06 139.03 124.42 148.94 135.06 158.84 124.42 168.74 135.06 178.64 124.42 188.55 135.06 198.45 124.42 208.36 135.06 218.27 124.42 228.18 135.06 238.08 124.42 247.99 135.06 257.89 124.42 267.8 135.06 277.71 124.42 287.62 135.06 297.52 124.42 307.43 135.06 317.33 124.42 327.24 135.06 337.15 124.42 347.06 135.06 356.96 124.42 366.87 135.06 376.78 124.42 386.69 135.06 396.6 124.42 406.5 135.06 416.41 124.42 426.32 135.06 436.23 124.42 446.14 135.06 456.05 124.42 465.96 135.06 475.87 124.42 485.78 135.06 495.68 124.42 505.59 135.06 515.5 124.42 525.41 135.06 535.32 124.42 545.23 135.06 555.14 124.42 565.05 135.06 574.97 124.42 584.87 135.06 594.77 124.42 604.67 135.06 614.59 124.42 624.49 135.06 634.4 124.42 644.31 135.06 654.22 124.42 664.12 135.06 674.03 124.42 683.95 135.06 693.85 124.42 703.76 135.06 713.68 124.42 723.59 135.06 733.5 124.42 743.41 135.06 753.33 124.42 763.24 135.06 773.16 124.42 783.07 135.06 792.99 124.42 802.9 135.06 812.81 124.42 822.72 135.06 832.64 124.42 842.55 135.06 852.47 124.42 862.39 135.06 872.3 124.42 882.23 135.06 892.16 124.42 902.08 135.06"/><polyline class="cls-3" points="0.37 265.4 10.27 276.04 20.18 265.4 30.09 276.04 39.99 265.4 49.9 276.04 59.8 265.4 69.7 276.04 79.6 265.4 89.5 276.04 99.4 265.4 109.31 276.04 119.22 265.4 129.13 276.04 139.03 265.4 148.94 276.04 158.84 265.4 168.74 276.04 178.64 265.4 188.55 276.04 198.45 265.4 208.36 276.04 218.27 265.4 228.18 276.04 238.08 265.4 247.99 276.04 257.89 265.4 267.8 276.04 277.71 265.4 287.62 276.04 297.52 265.4 307.43 276.04 317.33 265.4 327.24 276.04 337.15 265.4 347.06 276.04 356.96 265.4 366.87 276.04 376.78 265.4 386.69 276.04 396.6 265.4 406.5 276.04 416.41 265.4 426.32 276.04 436.23 265.4 446.14 276.04 456.05 265.4 465.96 276.04 475.87 265.4 485.78 276.04 495.68 265.4 505.59 276.04 515.5 265.4 525.41 276.04 535.32 265.4 545.23 276.04 555.14 265.4 565.05 276.04 574.97 265.4 584.87 276.04 594.77 265.4 604.67 276.04 614.59 265.4 624.49 276.04 634.4 265.4 644.31 276.04 654.22 265.4 664.12 276.04 674.03 265.4 683.95 276.04 693.85 265.4 703.76 276.04 713.68 265.4 723.59 276.04 733.5 265.4 743.41 276.04 753.33 265.4 763.24 276.04 773.16 265.4 783.07 276.04 792.99 265.4 802.9 276.04 812.81 265.4 822.72 276.04 832.64 265.4 842.55 276.04 852.47 265.4 862.39 276.04 872.3 265.4 882.23 276.04 892.16 265.4 902.08 276.04"/></g></svg>