<?xml version="1.0" standalone="no"?>
<!DOCTYPE svg PUBLIC "-//W3C//DTD SVG 20010904//EN"
 "http://www.w3.org/TR/2001/REC-SVG-20010904/DTD/svg10.dtd">
<svg version="1.0" xmlns="http://www.w3.org/2000/svg"
 width="1074.000000pt" height="1074.000000pt" viewBox="0 0 1074.000000 1074.000000"
 preserveAspectRatio="xMidYMid meet">
<metadata>
Created by potrace 1.11, written by Peter Selinger 2001-2013
</metadata>
<g transform="translate(0.000000,1074.000000) scale(0.100000,-0.100000)"
fill="#000000" stroke="none">
<path d="M1588 9215 c-2 -2 -147 -7 -323 -10 -176 -3 -367 -8 -425 -10 -58 -2
-197 -6 -310 -10 -236 -6 -254 -9 -296 -37 -64 -44 -66 -55 -70 -390 -1 -167
-5 -420 -8 -563 -9 -388 -15 -759 -21 -1155 -7 -524 -24 -994 -40 -1140 -3
-25 -7 -79 -10 -120 -3 -41 -7 -93 -9 -115 -5 -47 -16 -154 -21 -210 -2 -22
-7 -67 -10 -100 -10 -96 -15 -155 -20 -235 -3 -41 -9 -115 -13 -165 -14 -181
-6 -852 13 -1055 2 -25 7 -90 10 -145 3 -55 8 -125 10 -155 2 -30 7 -100 10
-155 3 -55 7 -120 10 -145 3 -25 7 -92 10 -150 3 -58 7 -134 10 -170 2 -36 7
-110 10 -165 3 -55 7 -136 10 -180 3 -44 8 -120 11 -170 2 -49 6 -117 8 -150
3 -33 7 -109 10 -170 4 -60 9 -137 11 -170 3 -33 7 -98 10 -145 7 -154 22
-202 76 -242 30 -22 63 -24 219 -14 184 13 603 9 975 -9 92 -4 193 -7 645 -20
198 -6 510 -13 950 -22 179 -3 1957 -7 3953 -8 l3627 -3 42 22 c24 11 53 37
66 56 22 33 23 41 18 155 -3 66 -8 140 -10 165 -3 25 -7 95 -11 155 -3 61 -8
139 -10 175 -2 36 -7 121 -10 190 -3 69 -7 170 -10 225 -16 350 -19 548 -19
1215 -1 410 3 846 7 970 5 124 10 268 12 320 3 88 10 245 20 445 6 125 18 352
32 590 15 249 9 709 -11 855 -2 14 -7 50 -11 80 -4 30 -8 57 -10 60 -2 3 -6
26 -9 50 -4 25 -10 59 -13 75 -4 17 -6 34 -5 39 2 4 -2 14 -8 20 -5 7 -8 15
-5 18 4 4 0 34 -19 143 -2 17 -8 62 -11 100 -4 39 -9 84 -11 100 -6 49 -6 305
0 365 7 68 18 167 21 200 4 32 16 119 21 145 2 10 6 37 9 60 3 22 10 65 16 95
6 30 12 66 13 80 2 14 6 34 9 45 9 32 19 97 22 140 3 61 -35 127 -85 148 -30
12 -56 13 -345 21 -121 4 -292 9 -380 12 -88 3 -239 7 -335 9 -195 5 -449 12
-735 20 -104 3 -266 8 -360 10 -93 2 -253 7 -355 10 -231 7 -457 13 -715 19
-192 5 -223 7 -345 23 -49 6 -282 8 -445 3 -59 -2 -359 5 -645 15 -194 6 -486
15 -700 20 -96 3 -254 7 -350 10 -164 4 -457 11 -925 22 -245 5 -2412 12
-2417 8z m1787 -307 c4 -3 -18 -53 -49 -111 -63 -119 -204 -400 -246 -491 -15
-33 -48 -104 -73 -156 -24 -52 -79 -174 -121 -270 -42 -96 -81 -184 -86 -195
-29 -66 -84 -198 -131 -317 -50 -129 -65 -156 -66 -125 -1 6 -24 77 -52 157
-28 80 -53 152 -55 160 -5 19 -45 129 -56 155 -5 11 -18 47 -30 80 -11 33 -24
69 -29 80 -5 11 -26 63 -46 115 -32 82 -146 355 -193 460 -9 19 -16 37 -17 40
-3 9 -52 113 -124 263 -39 82 -71 152 -71 156 0 9 1436 8 1445 -1z m-1768 -31
c9 -18 18 -34 18 -37 3 -14 61 -126 68 -131 5 -3 8 -8 7 -10 -1 -2 17 -43 39
-91 23 -49 59 -127 81 -174 22 -47 61 -134 86 -193 25 -58 54 -124 63 -146 10
-22 46 -112 80 -200 35 -88 67 -169 72 -180 5 -11 29 -77 54 -147 24 -71 48
-136 54 -145 5 -10 10 -22 10 -28 1 -5 32 -107 70 -225 73 -228 111 -351 117
-386 6 -34 34 -107 49 -131 30 -46 134 -73 168 -44 8 6 16 8 19 5 12 -12 77
81 93 134 10 31 21 62 26 67 4 6 8 13 8 17 3 15 14 45 78 213 35 94 66 175 67
180 2 6 8 21 14 35 5 14 31 77 57 140 26 63 58 139 71 168 13 29 24 55 24 57
0 3 13 32 29 65 16 33 27 60 25 60 -2 0 6 19 18 43 12 23 23 47 24 52 1 6 27
64 58 129 31 65 66 140 78 165 20 45 179 364 275 551 26 52 51 97 54 100 4 3
18 31 33 62 l27 57 112 -1 c62 -1 115 -3 119 -5 4 -2 -12 -41 -37 -86 -140
-263 -399 -775 -513 -1017 -22 -47 -61 -130 -87 -185 -39 -83 -92 -199 -190
-420 -48 -108 -69 -155 -120 -275 -31 -74 -64 -150 -72 -168 -8 -18 -30 -72
-49 -120 -19 -48 -41 -100 -49 -117 -8 -16 -26 -61 -41 -100 -14 -38 -32 -83
-39 -100 -7 -16 -27 -68 -45 -115 -18 -47 -39 -98 -46 -115 -7 -16 -24 -61
-37 -100 -14 -38 -31 -83 -37 -100 l-12 -30 -20 60 c-11 33 -21 67 -23 75 -2
8 -13 44 -25 80 -12 36 -23 70 -25 75 -1 6 -5 17 -8 25 -9 23 -91 274 -93 285
-5 21 -175 497 -215 600 -13 33 -24 62 -24 65 -1 3 -7 19 -14 35 -6 17 -30 77
-52 135 -23 58 -48 121 -56 140 -8 19 -19 44 -23 55 -4 11 -15 36 -24 57 -9
20 -16 39 -16 42 0 10 -255 595 -310 711 -29 61 -67 142 -85 180 -18 39 -71
149 -119 246 -47 96 -86 177 -86 180 0 2 52 5 115 6 l115 2 17 -32z m-477
-192 c58 -116 126 -256 152 -311 85 -179 148 -315 148 -319 0 -2 15 -36 34
-77 37 -81 68 -150 71 -158 1 -3 8 -21 17 -40 88 -199 254 -609 343 -850 31
-85 60 -164 65 -175 19 -44 117 -323 125 -355 3 -8 22 -64 43 -125 39 -113 40
-116 46 -137 3 -7 12 -38 22 -68 10 -30 19 -59 20 -65 1 -5 17 -55 34 -110 42
-134 150 -504 156 -535 8 -41 37 -93 64 -112 32 -23 105 -31 144 -14 50 21 77
57 111 152 166 451 280 754 304 809 5 11 48 117 96 235 95 232 260 622 278
655 6 11 12 25 13 30 1 6 22 53 46 105 25 52 71 154 104 225 32 72 62 132 66
133 5 2 8 10 8 18 0 8 4 22 10 32 27 49 271 553 270 558 -1 4 2 10 7 13 5 3
42 71 82 151 41 80 86 168 101 195 15 28 51 95 80 150 29 55 57 105 61 111 5
6 15 29 23 50 l13 39 165 0 c143 0 165 -2 160 -15 -6 -16 -54 -107 -82 -155
-17 -29 -99 -186 -247 -470 -84 -163 -364 -723 -451 -905 -85 -177 -145 -304
-147 -310 -1 -3 -15 -34 -32 -70 -17 -36 -44 -94 -60 -130 -17 -36 -41 -87
-54 -115 -12 -27 -23 -52 -24 -55 0 -3 -3 -10 -7 -15 -4 -6 -24 -51 -46 -100
-22 -50 -68 -153 -102 -230 -64 -145 -82 -186 -85 -195 -1 -3 -8 -21 -17 -40
-8 -19 -34 -80 -57 -135 -23 -55 -46 -109 -52 -119 -6 -10 -22 -49 -36 -85
-14 -36 -28 -70 -32 -76 -4 -5 -18 -39 -31 -75 -13 -36 -30 -76 -37 -90 -7
-14 -13 -28 -13 -32 0 -4 -10 -31 -23 -60 -13 -29 -32 -73 -42 -98 -10 -25
-23 -58 -30 -75 -7 -16 -21 -52 -30 -80 -10 -27 -22 -54 -27 -60 -4 -5 -8 -15
-8 -22 0 -7 -8 -32 -19 -56 -18 -41 -105 -257 -107 -267 0 -3 -4 -12 -7 -20
-3 -8 -41 -107 -82 -220 -42 -113 -80 -209 -84 -213 -7 -7 -16 19 -25 73 -1 3
-6 19 -13 35 -11 30 -133 421 -137 440 -1 6 -4 15 -7 20 -3 6 -12 33 -19 60
-7 28 -17 56 -23 63 -5 6 -6 12 -3 12 4 0 2 8 -3 18 -6 11 -12 30 -15 43 -3
13 -16 53 -29 89 -13 36 -25 68 -26 72 -2 10 -1 8 -60 178 -97 285 -132 385
-146 420 -7 19 -39 105 -70 190 -96 261 -249 653 -347 890 -22 52 -56 133 -75
180 -19 47 -41 99 -49 116 -7 16 -36 84 -64 149 -28 65 -57 133 -65 149 -130
289 -215 481 -215 487 0 5 -4 9 -10 9 -5 0 -10 6 -10 13 0 7 -12 38 -26 68
-15 30 -49 101 -76 159 -28 58 -109 224 -181 369 -73 146 -133 268 -135 272
-4 9 65 14 213 15 l99 1 106 -212z m4450 180 c96 -2 179 -4 184 -5 10 0 -38
-40 -48 -40 -4 0 -12 -5 -19 -10 -7 -6 -44 -34 -82 -63 -132 -98 -246 -212
-365 -364 -15 -19 -96 -146 -104 -163 -25 -54 -43 -72 -37 -37 1 5 4 52 7 105
3 53 6 115 8 137 2 22 7 96 11 165 4 69 9 136 10 150 2 14 3 50 4 81 l1 57
128 -4 c70 -2 206 -6 302 -9z m1425 -40 c112 -3 170 -9 170 -15 0 -1 9 -3 20
-4 11 -2 34 -6 50 -10 47 -10 77 -16 115 -22 19 -2 46 -7 60 -10 28 -5 57 -10
110 -18 19 -3 46 -8 60 -11 14 -3 41 -7 60 -10 53 -6 196 -42 283 -71 150 -50
257 -121 341 -229 76 -96 154 -262 173 -364 2 -14 9 -46 14 -71 6 -25 12 -83
15 -128 2 -46 7 -88 10 -93 3 -5 1 -9 -5 -9 -7 0 -7 -8 -1 -24 5 -13 7 -26 4
-28 -2 -3 -6 -40 -9 -84 -3 -43 -10 -101 -15 -129 -6 -27 -12 -63 -14 -80 -11
-80 -77 -272 -137 -403 -36 -75 -129 -236 -141 -240 -4 -2 -8 -8 -8 -14 0 -32
-195 -252 -326 -366 -55 -49 -266 -192 -283 -192 -6 0 -11 -5 -11 -10 0 -6 -3
-9 -7 -8 -5 1 -39 -13 -78 -31 -100 -46 -102 -47 -185 -74 -150 -50 -347 -80
-510 -79 -144 2 -339 27 -408 53 -15 6 -29 10 -32 10 -8 -1 -131 40 -170 56
-128 56 -311 157 -352 196 -7 7 -31 25 -53 41 -54 41 -190 181 -228 236 -17
25 -33 47 -36 50 -13 11 -51 70 -51 78 0 5 -9 21 -21 36 -11 15 -22 32 -23 39
-1 6 -14 37 -28 67 -25 53 -52 120 -53 130 -1 3 -8 30 -17 60 -9 30 -19 73
-24 95 -4 22 -8 47 -10 55 -2 8 -6 46 -10 85 -13 133 -5 290 22 410 4 17 8 37
9 45 1 8 5 22 8 30 3 8 15 44 27 80 11 36 29 83 39 105 55 119 74 155 82 155
5 0 9 5 9 12 0 6 11 26 25 44 14 18 25 37 25 42 0 6 3 12 8 14 4 2 20 19 36
38 98 120 223 231 351 311 39 24 79 50 90 57 24 15 68 34 74 32 2 -1 7 3 10 8
7 10 221 98 261 106 14 3 59 15 100 27 41 11 93 22 114 25 21 2 41 5 43 8 4 3
167 0 428 -9z m1571 -48 c7 -6 17 -267 11 -267 -3 0 -16 17 -28 38 -34 54 -55
78 -142 164 l-78 76 116 -3 c64 -2 119 -5 121 -8z m526 -9 c82 -2 148 -5 148
-8 0 -4 -84 -83 -150 -140 -37 -32 -162 -144 -181 -162 -10 -10 -20 -14 -22
-10 -2 4 -5 50 -7 102 -1 52 -3 122 -5 155 -1 33 -1 63 1 66 2 3 18 4 36 3 18
-2 99 -4 180 -6z m366 -17 c3 -1 -101 -91 -148 -128 -96 -77 -217 -180 -225
-193 -26 -43 -21 -50 110 -155 54 -44 106 -87 115 -95 9 -8 39 -33 65 -55 27
-22 57 -48 67 -57 10 -10 20 -18 23 -18 7 0 21 -12 70 -58 l36 -34 -28 -21
c-15 -12 -41 -34 -56 -49 -16 -15 -34 -31 -41 -35 -13 -8 -78 -61 -140 -115
-17 -15 -70 -58 -117 -95 -101 -80 -124 -111 -108 -145 6 -13 41 -47 77 -75
37 -29 79 -63 93 -75 15 -13 43 -36 64 -53 20 -16 52 -43 71 -60 18 -16 48
-41 65 -55 18 -14 52 -43 76 -65 l44 -40 -91 -75 c-50 -41 -104 -86 -120 -100
-15 -14 -43 -36 -60 -50 -18 -14 -40 -32 -49 -41 -9 -8 -38 -33 -66 -55 -27
-21 -56 -45 -63 -51 -7 -7 -18 -13 -23 -13 -5 0 -9 -6 -9 -14 0 -8 -7 -17 -15
-20 -14 -5 -14 -9 -1 -33 8 -16 27 -37 42 -48 15 -11 32 -24 38 -30 6 -5 52
-44 101 -85 50 -41 95 -79 101 -85 37 -34 75 -65 117 -95 64 -45 81 -76 60
-110 -8 -14 -36 -41 -61 -60 -26 -19 -49 -37 -52 -40 -3 -3 -41 -34 -85 -70
-44 -35 -82 -67 -85 -71 -3 -3 -34 -30 -70 -59 -74 -61 -110 -97 -110 -110 0
-24 20 -46 108 -117 54 -42 99 -79 102 -82 3 -4 45 -40 95 -81 49 -41 103 -87
120 -102 16 -14 41 -35 54 -45 l23 -19 -58 -49 c-33 -28 -64 -54 -70 -60 -6
-5 -33 -28 -60 -50 -26 -22 -55 -47 -64 -55 -9 -8 -38 -33 -65 -55 -28 -22
-63 -52 -80 -67 -16 -15 -34 -28 -38 -28 -4 0 -23 -17 -42 -37 l-34 -37 20
-27 c11 -15 50 -51 87 -80 37 -29 77 -62 89 -73 12 -12 28 -25 35 -31 7 -5 66
-55 132 -110 65 -55 126 -106 135 -113 15 -12 15 -14 0 -25 -23 -17 -105 -86
-179 -150 -14 -12 -48 -40 -75 -62 -28 -22 -55 -44 -61 -50 -6 -5 -45 -37 -87
-70 -42 -33 -79 -68 -82 -77 -10 -29 12 -55 113 -136 92 -74 113 -91 186 -154
l31 -28 -56 4 c-51 3 -60 7 -113 57 -32 30 -69 61 -82 69 -13 8 -24 18 -24 21
0 4 -26 26 -57 50 -103 77 -113 101 -61 146 17 16 41 37 54 48 13 11 36 30 51
42 15 12 39 31 53 43 14 12 45 39 70 59 25 20 50 41 55 47 6 5 33 28 60 49
104 81 119 102 92 135 -7 8 -66 58 -132 111 -66 54 -130 105 -141 115 -12 11
-38 33 -59 49 -134 108 -157 142 -117 175 10 8 40 33 67 55 82 66 87 70 99 80
6 6 70 60 141 120 72 61 140 119 152 129 l23 19 -33 29 c-17 16 -47 42 -66 56
-18 15 -54 45 -79 67 -25 22 -54 46 -66 54 -12 8 -23 17 -26 20 -8 9 -70 62
-120 101 -129 103 -135 118 -69 172 23 18 46 38 53 43 6 6 81 68 166 138 186
153 220 184 220 203 0 16 -24 42 -87 92 -23 19 -51 41 -62 50 -10 10 -38 32
-60 51 -137 111 -257 215 -264 227 -14 24 1 51 50 91 26 21 78 64 117 96 39
32 80 66 91 75 61 51 174 147 202 172 l33 28 -23 20 c-33 30 -164 141 -227
192 -30 25 -57 47 -60 50 -3 3 -27 23 -55 45 -124 99 -145 127 -119 164 8 11
67 63 132 115 64 52 131 106 147 121 17 14 47 40 68 58 21 18 52 45 69 60 18
16 41 35 52 42 19 14 19 15 -5 35 -13 11 -33 28 -45 38 -11 9 -42 35 -69 57
-27 22 -59 49 -71 61 -13 11 -35 29 -50 40 -15 10 -36 28 -48 39 -12 11 -44
38 -71 60 -157 125 -157 127 -20 237 92 74 131 106 157 131 10 9 20 17 23 17
3 0 13 7 23 16 79 72 94 81 131 79 20 -2 37 -4 39 -4z m502 -10 c5 -1 -52 -55
-216 -206 -48 -44 -97 -89 -108 -100 -12 -11 -38 -34 -58 -52 l-37 -31 30 -29
c47 -44 69 -64 139 -123 36 -30 74 -64 86 -75 11 -11 44 -40 74 -65 29 -25 66
-56 81 -70 15 -14 40 -35 54 -47 l27 -23 -32 -27 c-18 -15 -37 -32 -44 -38 -6
-6 -81 -71 -166 -144 -220 -189 -230 -198 -230 -218 0 -21 36 -62 100 -114 25
-20 56 -47 70 -59 14 -12 80 -69 147 -127 67 -58 125 -114 129 -125 7 -24 -7
-40 -111 -127 -44 -36 -87 -73 -95 -81 -9 -8 -30 -26 -46 -40 -79 -67 -181
-156 -198 -173 -22 -22 -35 -6 108 -130 33 -29 64 -56 70 -62 6 -5 43 -37 81
-70 39 -33 72 -62 75 -65 3 -3 35 -31 72 -63 l67 -58 -27 -25 c-15 -13 -39
-34 -53 -46 -14 -13 -43 -39 -65 -58 -21 -19 -68 -60 -104 -90 -36 -30 -72
-61 -81 -70 -9 -8 -39 -33 -67 -55 -28 -22 -58 -53 -66 -69 -14 -29 -13 -31
17 -60 18 -17 59 -54 92 -81 33 -28 67 -57 75 -65 9 -8 68 -60 133 -114 64
-55 120 -109 123 -120 7 -21 -28 -58 -144 -156 -30 -25 -70 -60 -90 -78 -21
-18 -57 -50 -82 -70 -92 -75 -130 -115 -130 -137 0 -13 18 -37 48 -62 26 -23
98 -85 161 -139 63 -55 130 -112 150 -129 19 -16 53 -46 73 -65 l39 -35 -73
-62 c-40 -33 -83 -69 -94 -79 -12 -11 -47 -41 -79 -69 -32 -27 -83 -72 -113
-100 -30 -27 -60 -53 -67 -58 -8 -4 -19 -24 -26 -44 l-12 -37 69 -64 c95 -88
132 -121 189 -167 73 -60 115 -98 115 -104 0 -4 -68 -5 -151 -4 l-151 2 -47
38 c-25 21 -52 43 -59 50 -7 7 -34 29 -60 50 -26 21 -49 40 -52 43 -3 3 -27
22 -53 44 -53 42 -70 72 -56 98 8 15 70 69 174 153 38 31 62 50 105 88 14 12
45 38 70 57 24 19 52 42 60 50 8 8 31 27 50 43 33 26 34 28 16 42 -10 7 -35
30 -57 49 -21 20 -43 36 -49 36 -5 0 -10 3 -10 8 0 4 -28 30 -63 57 -34 28
-72 59 -83 70 -12 11 -57 49 -100 85 -44 36 -85 70 -92 77 -7 7 -23 19 -34 28
l-22 14 25 22 c13 11 46 40 73 63 27 22 54 46 60 51 6 6 84 70 173 143 89 73
165 138 169 143 14 23 -9 58 -66 103 -33 26 -65 52 -72 59 -16 15 -176 148
-237 197 -24 19 -57 48 -72 64 -26 25 -27 31 -16 56 7 16 40 51 75 78 34 28
74 61 88 74 14 12 34 30 43 38 9 8 69 57 133 109 65 52 120 102 123 112 9 26
-7 50 -62 95 -26 21 -53 43 -59 49 -7 5 -20 17 -31 25 -45 36 -130 106 -147
123 -11 9 -50 41 -87 70 -108 85 -110 99 -23 168 31 24 66 53 78 64 12 11 42
36 66 55 23 19 50 42 59 50 9 8 55 46 101 85 95 77 109 93 110 116 0 16 -46
61 -125 124 -21 17 -43 35 -49 40 -6 6 -49 42 -96 80 -47 38 -87 72 -90 75 -3
3 -21 17 -40 32 -104 78 -105 92 -15 163 21 17 43 35 49 40 15 14 197 167 216
182 82 64 150 127 150 140 0 9 -19 34 -43 57 -52 50 -107 98 -107 92 0 -3 -12
8 -28 22 -31 31 -82 74 -165 140 -116 92 -140 119 -134 144 4 13 47 56 98 98
50 41 100 82 109 90 10 8 37 31 61 51 24 21 60 51 79 68 l35 30 135 -3 c74 -3
137 -5 140 -5z m169 -44 c-45 -42 -131 -116 -179 -156 -14 -12 -45 -39 -70
-60 -25 -21 -62 -53 -82 -71 -62 -53 -53 -79 64 -173 26 -21 53 -43 60 -50 7
-7 31 -27 53 -46 43 -36 131 -112 206 -178 l47 -41 -31 -28 c-18 -15 -50 -43
-72 -63 -22 -20 -67 -58 -99 -86 -33 -27 -69 -59 -82 -70 -12 -11 -44 -38 -71
-60 -81 -67 -113 -102 -113 -123 0 -25 23 -50 110 -121 36 -30 72 -60 80 -67
8 -7 44 -39 80 -70 36 -31 86 -76 111 -99 25 -23 55 -48 67 -57 22 -15 21 -16
-50 -78 -40 -35 -80 -71 -89 -79 -9 -9 -38 -34 -64 -56 -26 -22 -57 -48 -69
-59 -11 -10 -41 -35 -66 -55 -86 -70 -120 -108 -114 -128 7 -19 46 -57 110
-108 21 -16 47 -39 59 -50 11 -11 49 -45 85 -75 36 -30 67 -57 70 -60 3 -3 30
-27 61 -53 31 -26 59 -57 62 -69 6 -22 -22 -55 -97 -113 -21 -17 -48 -39 -60
-50 -53 -47 -116 -103 -166 -145 -90 -76 -120 -107 -120 -129 0 -24 25 -52
105 -116 33 -27 69 -57 80 -66 11 -10 77 -68 148 -130 70 -62 127 -116 127
-121 0 -4 -10 -17 -22 -27 -13 -11 -34 -30 -48 -41 -14 -12 -47 -41 -73 -64
-27 -22 -61 -52 -76 -66 -41 -37 -141 -122 -170 -145 -46 -35 -79 -77 -74 -96
3 -10 37 -44 75 -76 39 -32 83 -69 98 -83 15 -14 52 -45 81 -70 29 -25 63 -54
75 -65 31 -28 74 -66 111 -96 26 -22 30 -29 20 -41 -11 -13 -102 -92 -165
-144 -23 -19 -33 -27 -103 -89 -19 -17 -63 -55 -99 -84 -75 -62 -89 -79 -90
-104 0 -21 8 -30 92 -100 107 -88 121 -100 251 -220 l39 -35 -49 -4 c-47 -3
-49 -2 -109 57 -72 70 -163 154 -230 210 -58 49 -84 76 -84 88 0 11 21 51 30
57 33 22 265 222 268 231 2 5 7 9 12 9 8 0 58 42 112 92 46 45 38 65 -52 138
-59 47 -169 140 -195 165 -27 25 -146 128 -156 135 -4 3 -10 17 -14 31 -6 24
1 34 67 89 40 35 96 82 123 106 28 24 59 51 71 61 44 38 169 149 187 167 22
21 28 13 -86 109 -20 18 -52 46 -70 62 -18 17 -54 48 -81 70 -26 22 -58 49
-70 60 -12 11 -44 38 -71 60 -27 22 -54 46 -62 53 -31 32 -12 57 132 177 33
27 62 52 65 56 3 3 52 46 110 94 118 99 130 111 130 137 0 23 -12 35 -125 129
-49 40 -97 81 -105 89 -8 8 -44 40 -80 70 -102 86 -130 114 -135 138 -4 23 4
30 210 207 50 42 121 105 159 139 38 33 76 67 85 73 14 11 11 17 -26 50 -45
41 -203 178 -242 209 -13 10 -31 26 -40 34 -9 9 -44 40 -78 69 -94 79 -89 96
67 222 25 20 56 47 70 59 64 55 156 137 179 159 14 13 39 34 55 48 l29 25 -34
31 c-19 18 -61 55 -94 82 -32 28 -68 59 -81 70 -12 11 -43 38 -70 60 -123 103
-182 158 -187 174 -6 26 12 54 63 96 25 20 63 52 85 71 22 18 51 43 65 54 28
24 128 110 174 151 22 19 42 27 71 27 l40 1 -46 -42z m261 19 c0 -2 -5 -28
-11 -57 -5 -30 -12 -67 -14 -84 -3 -16 -7 -48 -10 -70 -3 -22 -7 -49 -9 -60
-10 -54 -38 -338 -38 -377 1 -26 -8 -22 -53 20 -23 20 -93 82 -157 136 -65 55
-120 106 -123 113 -8 21 9 46 61 89 26 22 52 44 58 49 6 6 42 37 81 70 38 33
79 69 91 80 81 77 124 108 124 91z m-9804 -274 c116 -235 211 -431 264 -547
15 -33 43 -94 62 -135 19 -41 77 -169 128 -285 51 -115 101 -228 111 -250 9
-22 43 -101 74 -175 31 -74 62 -146 68 -160 6 -14 11 -27 12 -30 1 -3 6 -16
12 -30 6 -14 39 -95 73 -180 34 -85 68 -168 75 -185 7 -16 45 -115 85 -220 39
-104 75 -199 80 -210 5 -11 25 -63 44 -115 19 -52 49 -133 66 -180 17 -47 33
-92 35 -100 2 -8 4 -16 5 -17 2 -2 3 -6 5 -10 1 -5 4 -15 8 -23 12 -30 66
-188 97 -280 17 -52 35 -103 40 -112 6 -10 10 -26 10 -36 0 -10 3 -22 7 -26 4
-3 8 -12 9 -19 1 -7 25 -82 54 -167 28 -85 53 -159 54 -165 1 -5 15 -50 30
-99 16 -49 29 -94 31 -100 1 -6 5 -18 8 -26 3 -8 20 -62 37 -120 17 -58 34
-112 37 -120 7 -18 9 -26 16 -60 3 -14 10 -37 16 -53 6 -15 13 -38 16 -50 2
-12 14 -53 25 -92 12 -38 23 -77 25 -85 19 -74 36 -134 41 -142 4 -5 -395 -8
-1010 -6 -559 1 -1016 5 -1017 8 -1 6 -5 87 -16 285 -9 185 -9 609 0 760 4 66
10 149 12 185 2 36 6 88 9 115 3 28 8 82 11 120 6 72 9 102 20 215 10 110 14
152 20 230 3 41 7 104 10 140 20 264 31 566 40 1170 7 428 11 609 21 1055 4
182 7 385 8 452 0 66 4 119 8 117 4 -3 60 -112 124 -242z m4239 141 c-3 -32
-7 -89 -9 -128 -10 -154 -17 -243 -22 -305 -3 -36 -7 -90 -9 -119 -4 -58 -13
-185 -20 -286 -12 -153 -16 -215 -20 -285 -3 -41 -7 -111 -10 -155 -11 -151
-14 -200 -20 -295 -3 -52 -7 -120 -10 -150 -4 -48 -8 -139 -20 -380 -15 -312
-19 -525 -19 -1035 0 -324 3 -664 7 -755 4 -91 9 -239 12 -330 3 -91 7 -216 9
-277 3 -62 1 -115 -2 -117 -4 -2 -50 -7 -102 -10 -52 -4 -104 -9 -115 -11 -11
-3 -45 -7 -75 -10 -63 -6 -120 -13 -170 -21 -44 -7 -81 -12 -145 -19 -27 -4
-57 -8 -65 -10 -8 -2 -40 -7 -70 -10 -30 -3 -71 -8 -90 -10 -66 -9 -145 -16
-210 -20 -36 -2 -99 -7 -140 -10 -68 -6 -830 -14 -830 -9 0 5 210 580 227 624
4 8 7 17 8 20 1 3 7 18 13 33 7 16 12 30 12 32 0 2 24 66 54 142 30 76 71 181
91 233 95 243 128 326 136 336 5 6 10 19 12 30 2 10 12 39 23 64 10 25 18 48
16 53 -1 4 3 7 8 7 6 0 10 5 10 12 0 11 134 339 148 363 4 6 7 15 8 20 2 10
64 153 110 253 13 29 24 54 24 57 0 2 16 38 35 79 19 42 35 78 35 80 0 2 16
39 37 82 20 44 37 84 39 89 1 6 34 78 72 160 38 83 81 175 95 205 214 464 559
1160 794 1600 25 47 64 120 86 163 23 42 44 77 49 77 4 0 5 -26 3 -57z m4099
-252 c42 -37 112 -97 166 -141 84 -68 102 -84 119 -100 9 -8 41 -35 71 -60 83
-68 82 -67 66 -82 -7 -7 -33 -29 -57 -50 -24 -20 -55 -46 -69 -58 -28 -24 -32
-27 -150 -125 -47 -39 -101 -83 -121 -98 l-35 -26 -2 57 c-2 82 -10 340 -17
535 -3 92 -3 167 1 167 3 0 16 -9 28 -19z m1382 -618 c3 -37 6 -88 8 -113 3
-41 9 -85 23 -165 3 -16 7 -43 9 -60 5 -35 8 -51 28 -164 9 -47 14 -86 12 -88
-2 -2 -11 3 -20 12 -9 9 -16 14 -16 11 0 -2 -12 8 -28 22 -15 15 -50 46 -77
69 -28 23 -61 51 -75 63 -14 12 -47 40 -75 63 -75 62 -125 113 -125 127 0 13
29 42 119 120 66 57 135 118 179 158 14 12 27 20 29 18 3 -2 7 -35 9 -73z
m-1260 -369 c39 -33 89 -74 112 -92 23 -19 51 -43 64 -54 13 -11 44 -38 71
-60 26 -22 47 -48 47 -58 0 -17 -28 -46 -115 -115 -58 -46 -102 -84 -124 -105
-9 -8 -36 -31 -61 -50 -24 -19 -55 -45 -69 -57 -13 -13 -27 -23 -31 -23 -3 0
-7 37 -8 83 0 45 -3 207 -7 360 l-6 278 28 -24 c15 -14 60 -51 99 -83z m1369
-375 c3 -24 8 -69 11 -99 12 -94 4 -624 -10 -637 -2 -2 -15 6 -28 19 -36 34
-107 96 -127 111 -10 6 -50 40 -88 75 -39 34 -84 72 -99 84 -63 48 -104 96
-98 115 7 20 46 59 114 113 38 31 84 71 156 135 21 19 73 63 133 112 14 11 27
20 29 18 1 -1 5 -22 7 -46z m-1779 -265 c7 -352 11 -2535 4 -2619 l-5 -60 -24
65 c-13 36 -29 79 -36 95 -20 48 -57 138 -66 160 -107 259 -237 517 -372 740
-54 88 -103 169 -110 180 -7 11 -24 38 -38 60 -77 118 -191 317 -256 445 l-74
144 23 18 c13 10 31 20 42 24 28 9 172 109 256 177 75 61 200 182 275 268 85
96 275 383 275 416 0 7 5 13 10 13 6 0 10 4 10 9 0 13 71 163 75 159 3 -2 7
-134 11 -294z m350 -189 c6 -5 35 -30 64 -55 29 -25 66 -57 83 -72 16 -16 32
-28 36 -28 3 0 26 -19 51 -43 26 -23 68 -59 94 -81 l48 -39 -49 -44 c-26 -24
-60 -51 -75 -60 -16 -10 -28 -20 -28 -24 0 -4 -26 -26 -57 -50 -32 -24 -60
-47 -63 -50 -13 -16 -130 -109 -137 -109 -4 0 -9 156 -11 347 -3 376 -6 354
44 308z m-3925 -155 c34 -80 67 -158 74 -175 32 -72 199 -531 260 -710 26 -77
51 -149 55 -160 7 -17 19 -52 25 -75 1 -3 4 -12 7 -20 12 -31 61 -175 63 -185
2 -10 4 -16 21 -60 4 -11 8 -24 10 -30 1 -5 21 -68 44 -140 23 -71 54 -170 70
-220 33 -105 111 -370 115 -394 2 -9 4 -16 6 -16 1 0 3 -9 4 -20 2 -11 10 -39
19 -63 8 -23 15 -43 15 -45 -3 -11 16 -85 24 -95 8 -10 -2 -11 -44 -7 -169 15
-405 27 -626 29 -106 1 -196 5 -199 9 -4 3 -8 50 -10 104 -2 54 -5 163 -8 243
-30 811 -34 1583 -12 2005 3 44 5 107 5 140 1 74 3 72 82 -115z m495 -250 c10
-9 46 -35 80 -58 57 -40 64 -49 117 -160 30 -64 65 -139 77 -167 12 -27 32
-72 44 -100 13 -27 46 -108 75 -180 29 -71 57 -139 61 -150 96 -233 328 -930
354 -1060 1 -5 10 -35 19 -65 9 -30 27 -99 42 -152 14 -53 28 -104 31 -113 6
-14 -3 -15 -67 -11 -175 13 -200 18 -205 48 -1 7 -17 67 -34 133 -18 66 -33
128 -35 138 -2 9 -6 21 -9 25 -3 5 -7 19 -10 33 -3 13 -17 65 -31 114 -15 50
-28 95 -29 100 -4 16 -64 210 -103 328 -19 59 -36 113 -37 120 -2 6 -6 19 -9
27 -5 13 -68 205 -72 220 -1 3 -4 12 -8 20 -3 8 -35 101 -71 205 -99 292 -174
504 -245 690 -17 44 -31 84 -31 89 0 4 17 -7 38 -25 22 -19 47 -41 58 -49z
m4859 28 c-7 -33 -18 -267 -19 -380 -1 -54 -3 -98 -6 -98 -3 0 -6 -24 -7 -52
-3 -156 -6 -198 -10 -198 -5 0 -114 91 -198 165 -16 15 -48 41 -69 58 -22 18
-62 53 -89 79 -64 61 -63 62 73 178 36 30 70 60 75 66 10 10 117 102 163 140
13 10 36 29 50 41 34 29 42 29 37 1z m-4219 -357 c47 -12 42 -5 264 -416 308
-568 527 -1049 664 -1458 14 -43 26 -79 26 -82 0 -4 -100 2 -155 10 -16 2 -70
7 -120 11 -49 3 -93 8 -96 10 -4 2 -10 21 -14 41 -3 21 -12 58 -20 83 -13 47
-68 247 -71 265 -19 90 -170 569 -249 790 -26 72 -48 135 -49 140 -4 12 -15
43 -26 70 -5 11 -47 119 -95 240 -48 121 -98 242 -111 268 -22 43 -23 48 -7
43 10 -2 37 -10 59 -15z m1228 -58 c65 -138 203 -385 218 -391 4 -2 8 -8 8
-13 0 -9 128 -227 140 -239 3 -3 38 -61 79 -130 41 -69 80 -135 88 -148 36
-59 156 -299 208 -417 67 -150 197 -472 196 -482 0 -2 15 -39 33 -83 19 -44
31 -82 27 -84 -4 -3 -45 -2 -91 0 -47 3 -113 6 -148 8 -34 2 -64 5 -65 7 -2 2
-20 36 -39 74 -19 39 -68 131 -107 205 -74 138 -572 1138 -631 1265 -38 82
-99 222 -110 250 -4 11 -15 36 -23 55 -9 19 -24 58 -35 87 l-20 52 37 6 c20 3
70 17 111 30 41 13 78 24 81 24 3 1 22 -34 43 -76z m-674 -26 l98 0 37 -96
c92 -237 150 -364 444 -963 66 -137 121 -252 121 -257 0 -5 3 -11 8 -13 4 -1
51 -91 105 -198 54 -107 120 -237 147 -289 28 -52 50 -98 50 -102 0 -5 -21 -6
-47 -4 -27 3 -88 7 -138 10 -53 4 -92 11 -97 18 -7 10 -24 64 -34 102 -1 6
-23 69 -49 140 -25 72 -47 135 -49 140 -2 6 -6 17 -9 25 -9 21 -30 74 -32 80
-10 30 -150 358 -185 435 -55 120 -256 526 -307 620 -27 50 -73 134 -102 189
-29 54 -61 113 -71 131 -18 32 -17 50 3 38 5 -3 53 -6 107 -6z m2420 -220 c14
-12 52 -44 84 -70 74 -60 91 -82 80 -108 -9 -19 -376 -330 -382 -324 -8 7 -7
121 0 143 4 12 4 22 0 22 -8 0 -7 83 2 105 3 8 2 15 -2 15 -4 0 -7 18 -7 40 0
22 4 40 8 40 4 0 4 8 0 18 -7 14 -9 128 -4 270 l1 33 98 -82 c53 -44 108 -91
122 -102z m1194 -349 c-9 -261 -15 -493 -15 -527 1 -31 0 -32 -16 -20 -19 14
-120 100 -238 204 -16 14 -56 47 -88 73 l-57 47 37 35 c32 30 191 167 272 235
13 11 42 37 65 57 22 21 42 38 43 38 1 0 0 -64 -3 -142z m-1389 -370 c7 -7 30
-27 51 -45 22 -17 49 -39 61 -50 11 -10 38 -32 60 -50 21 -17 48 -39 59 -50
12 -10 41 -34 64 -53 90 -74 93 -77 75 -92 -9 -7 -24 -20 -33 -28 -9 -9 -55
-47 -102 -85 -46 -39 -92 -77 -102 -85 -9 -8 -25 -22 -34 -30 -10 -8 -41 -34
-68 -57 -27 -24 -53 -43 -56 -43 -5 0 -5 663 -1 678 2 6 13 1 26 -10z m1366
-710 c-1 -177 -4 -324 -6 -326 -2 -3 -145 116 -165 138 -3 3 -30 25 -60 50
-142 116 -154 138 -102 188 35 33 127 112 167 144 16 13 37 30 45 38 54 51
113 100 118 95 3 -2 4 -150 3 -327z m-1350 -188 c34 -32 79 -70 84 -70 3 0 18
-13 33 -30 16 -16 34 -30 40 -30 5 0 12 -7 16 -15 5 -14 -13 -21 -39 -15 -5 1
-51 3 -102 3 l-92 2 4 55 c2 30 4 75 5 99 0 46 4 47 51 1z m-3396 -194 c28 -2
91 -7 140 -10 93 -7 157 -12 235 -21 25 -3 70 -7 100 -10 30 -2 73 -6 96 -9
22 -3 72 -8 110 -11 38 -3 83 -7 99 -9 74 -8 173 -18 210 -22 45 -4 92 -9 185
-19 124 -13 167 -18 300 -30 30 -3 80 -8 110 -11 30 -4 75 -8 100 -10 25 -2
72 -6 105 -9 33 -3 83 -7 110 -10 28 -2 50 -4 50 -5 0 -1 27 -3 60 -5 71 -4
188 -13 265 -20 53 -5 107 -8 310 -20 142 -8 251 -14 390 -20 69 -3 168 -7
220 -10 245 -11 675 -18 1093 -18 410 0 457 -2 458 -16 0 -9 2 -95 4 -191 2
-96 4 -175 5 -175 1 0 3 -45 5 -100 3 -100 13 -344 21 -485 2 -41 6 -122 9
-180 3 -58 7 -132 10 -165 3 -33 7 -106 9 -161 l5 -102 -3522 2 c-1937 2
-3688 6 -3892 9 -523 10 -1045 22 -1345 33 -69 2 -172 6 -230 8 -58 2 -193 7
-300 11 -197 8 -479 10 -602 4 -37 -2 -69 -1 -72 2 -3 2 -8 49 -11 104 -3 55
-8 127 -10 160 -2 33 -6 105 -9 160 -4 55 -9 134 -12 175 -2 41 -7 113 -9 160
-3 47 -7 121 -10 165 -2 44 -7 118 -9 165 -8 133 -16 259 -21 326 -14 173 -15
234 -3 235 7 1 353 0 768 -1 2385 -6 2356 -6 2560 14 25 3 78 8 118 11 40 4
81 8 90 10 9 1 44 6 77 9 33 4 71 9 85 11 83 15 138 23 215 30 22 2 40 4 40 5
0 1 11 3 25 5 14 1 45 5 70 8 105 15 200 24 320 33 52 3 97 8 99 10 5 5 704
-4 776 -10z"/>
<path d="M6778 8624 c-2 -1 -30 -5 -63 -8 -101 -10 -180 -22 -180 -26 0 -1
-12 -4 -28 -6 -47 -8 -199 -60 -272 -95 -64 -29 -213 -115 -225 -128 -3 -3
-27 -24 -55 -46 -232 -186 -389 -465 -422 -749 -12 -110 -5 -349 12 -376 2 -4
7 -22 10 -41 10 -59 64 -206 102 -277 50 -95 117 -187 188 -257 64 -64 158
-145 169 -145 4 0 16 -8 27 -19 59 -55 431 -213 459 -196 5 3 11 1 15 -5 4 -6
10 -8 14 -5 5 2 23 0 42 -5 19 -6 72 -12 118 -15 46 -3 93 -7 103 -11 10 -3
18 -2 18 3 0 4 30 8 68 9 87 1 158 11 246 35 39 11 80 22 91 24 49 11 256 105
275 125 3 3 39 27 80 55 168 111 367 346 470 553 42 86 105 262 115 322 3 19
8 42 10 50 4 15 13 62 21 110 6 39 6 233 0 271 -3 19 -8 51 -11 71 -17 124
-92 306 -167 400 -127 162 -297 245 -618 301 -109 20 -218 41 -285 57 -27 7
-68 14 -90 16 -47 6 -234 12 -237 8z m209 -304 c92 -20 311 -61 348 -66 22 -3
58 -10 80 -16 22 -6 50 -12 63 -14 39 -8 115 -35 166 -61 123 -62 217 -222
241 -408 35 -268 -63 -588 -251 -821 -101 -126 -224 -226 -361 -296 -74 -38
-185 -82 -203 -81 -3 0 -15 -3 -27 -8 -20 -7 -59 -14 -158 -24 -290 -33 -635
94 -825 302 -56 61 -90 102 -90 108 0 2 -11 20 -24 40 -27 39 -82 167 -89 205
-3 14 -10 45 -17 70 -17 59 -17 271 -1 340 68 290 239 495 524 630 87 42 227
85 305 96 26 3 48 7 50 9 7 7 233 2 269 -5z"/>
<path d="M6725 8194 c-188 -37 -257 -62 -378 -141 -217 -140 -350 -380 -350
-633 0 -73 21 -205 42 -255 92 -227 220 -356 461 -463 141 -63 373 -75 565
-28 54 13 215 91 244 118 11 10 24 18 29 18 14 0 165 153 197 201 16 24 33 46
36 49 4 3 27 48 51 100 63 131 90 241 93 370 3 133 -15 222 -66 328 -77 159
-204 246 -421 287 -13 3 -45 9 -73 15 -27 5 -65 12 -84 15 -19 3 -41 9 -50 14
-16 8 -259 12 -296 5z"/>
<path d="M4753 3185 c-25 -11 -101 -119 -186 -268 -30 -52 -37 -54 -38 -11 -1
44 -6 115 -13 159 -2 17 -5 41 -5 55 -1 14 -5 30 -9 37 -13 20 -62 23 -97 6
-40 -19 -57 -55 -50 -103 3 -19 8 -53 10 -75 3 -22 8 -50 10 -62 11 -48 18
-196 20 -418 1 -126 5 -239 9 -251 9 -26 56 -54 91 -54 50 0 54 13 53 199 -1
94 1 174 4 177 13 12 132 -206 158 -291 23 -75 55 -90 124 -61 53 22 57 39 28
125 -27 82 -109 251 -126 263 -6 4 -8 8 -4 8 4 0 -10 25 -32 56 -24 35 -36 62
-33 72 9 23 59 106 100 165 46 65 112 199 109 219 -7 48 -71 75 -123 53z"/>
<path d="M647 3157 c-57 -32 -62 -64 -26 -145 17 -37 39 -85 49 -108 49 -108
181 -470 195 -534 26 -120 62 -215 88 -229 46 -24 101 6 112 63 10 46 74 268
85 291 5 11 13 36 18 55 9 34 107 288 136 354 56 126 66 151 66 168 0 43 -71
101 -111 91 -9 -3 -24 -21 -34 -41 -22 -46 -106 -243 -109 -257 -1 -5 -10 -27
-19 -49 -10 -21 -38 -99 -64 -173 l-46 -135 -29 83 c-66 189 -147 394 -208
524 -32 69 -46 75 -103 42z"/>
<path d="M6968 3175 c-2 -2 -41 -6 -88 -10 -167 -13 -210 -29 -232 -85 -10
-25 -12 -107 -4 -146 2 -12 7 -57 11 -100 4 -43 9 -88 11 -99 3 -11 6 -120 9
-243 2 -123 9 -231 15 -242 15 -28 42 -33 183 -34 104 -1 130 1 141 14 17 19
29 56 31 98 2 44 -16 53 -117 58 -45 2 -83 6 -85 8 -2 2 -5 58 -6 125 l-3 120
71 -5 c63 -5 73 -3 90 16 23 26 24 90 2 124 -17 25 -45 33 -126 32 -44 -1 -51
2 -52 19 -2 22 -3 34 -13 113 -4 29 -4 52 1 50 4 -1 45 2 91 6 98 10 133 31
134 83 1 43 -19 90 -42 96 -10 3 -20 3 -22 2z"/>
<path d="M2828 3163 c-9 -2 -34 -30 -54 -61 -21 -31 -55 -83 -76 -115 -21 -32
-38 -63 -38 -68 0 -5 -4 -9 -10 -9 -5 0 -10 -6 -10 -14 0 -8 -4 -16 -8 -18 -4
-1 -23 -27 -42 -55 -18 -29 -36 -53 -39 -53 -3 0 -14 18 -24 40 -26 57 -142
226 -190 277 -41 44 -70 53 -106 33 -31 -16 -40 -60 -46 -240 -6 -175 -8 -208
-20 -382 -18 -270 -18 -274 7 -302 13 -15 38 -30 55 -35 52 -15 70 8 79 99 10
111 12 144 19 260 4 58 8 128 10 155 2 28 4 68 4 90 l1 40 19 -24 c21 -27 101
-182 101 -197 1 -14 43 -60 63 -67 32 -12 66 11 104 70 21 32 40 60 43 63 13
13 50 70 50 77 0 4 11 21 25 37 14 16 25 33 25 38 0 4 3 8 8 8 7 0 9 -85 11
-442 1 -147 2 -159 22 -179 17 -17 29 -20 62 -16 73 10 72 5 69 295 -3 252 -9
625 -11 649 -1 7 -11 21 -23 33 -21 19 -43 23 -80 13z"/>
<path d="M3230 3151 c-62 -18 -115 -48 -144 -83 -29 -33 -53 -107 -51 -153 4
-58 16 -196 20 -216 2 -10 6 -45 10 -78 3 -33 8 -70 10 -83 3 -13 7 -49 10
-82 3 -32 7 -62 10 -66 2 -3 6 -29 9 -56 12 -119 20 -160 33 -181 15 -22 49
-40 68 -34 6 2 44 12 85 22 193 50 307 125 337 222 18 58 10 157 -17 212 -26
54 -33 61 -98 105 -24 16 -38 31 -32 35 28 18 54 92 56 167 4 124 -41 227
-117 266 -38 20 -126 21 -189 3z m127 -175 c25 -8 39 -59 28 -103 -7 -31 -85
-107 -127 -126 -16 -6 -28 -15 -28 -19 0 -5 -6 -8 -13 -8 -6 0 -13 12 -14 28
-1 15 -4 64 -8 109 l-6 83 51 23 c52 24 77 27 117 13z m56 -441 c93 -15 100
-115 11 -163 -21 -11 -143 -52 -155 -52 -9 0 -18 52 -24 133 -3 32 -7 63 -10
68 -4 5 -5 9 -3 10 2 0 26 3 53 6 28 3 51 6 53 8 2 2 11 1 20 -1 9 -1 34 -6
55 -9z"/>
<path d="M5122 3145 c-36 -30 -62 -102 -77 -220 -3 -22 -8 -58 -11 -80 -2 -22
-7 -47 -9 -55 -3 -8 -7 -41 -10 -73 -3 -32 -10 -69 -15 -82 -5 -12 -7 -25 -4
-27 2 -3 0 -38 -5 -79 -30 -230 -35 -301 -19 -321 17 -23 66 -31 101 -17 30
13 40 39 41 111 1 27 3 48 6 48 3 0 6 19 8 43 1 23 4 51 6 62 3 11 5 25 5 31
1 6 20 10 44 9 23 0 52 3 65 7 19 6 24 3 33 -19 5 -14 11 -38 13 -53 2 -15 6
-31 9 -36 3 -5 8 -25 11 -44 11 -73 35 -162 47 -176 18 -22 75 -14 108 17 l30
27 -19 85 c-10 47 -24 105 -30 129 -7 23 -14 52 -16 63 -25 131 -117 434 -176
577 -21 53 -38 79 -55 87 -35 16 -48 14 -81 -14z m88 -404 l18 -61 -35 0 c-28
0 -33 3 -29 18 3 9 8 39 12 65 3 26 8 46 11 44 2 -3 13 -32 23 -66z"/>
<path d="M6215 3152 c-76 -16 -108 -56 -120 -152 -21 -168 -37 -446 -38 -648
-1 -132 7 -147 74 -146 67 2 72 15 75 164 1 72 4 134 7 137 10 9 53 -19 118
-78 28 -26 99 -152 99 -176 0 -7 9 -17 19 -23 35 -18 71 -11 102 19 l29 30
-25 67 c-31 83 -75 155 -126 208 l-39 41 22 15 c37 25 88 83 106 120 17 34 23
140 11 185 -20 76 -102 176 -177 214 -41 21 -100 31 -137 23z m89 -187 c72
-35 102 -121 61 -177 -25 -34 -135 -95 -144 -80 -7 11 -6 34 3 151 11 129 16
136 80 106z"/>
<path d="M8510 3144 c-88 -27 -113 -68 -113 -186 0 -86 10 -273 18 -343 2 -22
7 -71 11 -110 8 -85 11 -118 18 -170 3 -22 8 -60 11 -85 9 -68 15 -80 40 -90
32 -12 92 6 109 33 12 19 12 35 1 107 -7 47 -13 92 -13 100 1 8 -2 31 -5 51
l-7 37 38 -11 c20 -6 40 -16 44 -22 4 -5 8 -6 8 -1 0 8 61 -34 85 -59 27 -27
77 -97 79 -109 10 -68 122 -55 149 17 18 48 -74 182 -192 280 l-34 28 35 34
c85 85 108 215 58 320 -38 79 -143 170 -210 182 -55 10 -91 9 -130 -3z m142
-191 c78 -39 84 -139 11 -203 -52 -47 -92 -70 -98 -59 -4 6 -9 45 -12 87 -13
197 -11 205 40 195 17 -3 44 -12 59 -20z"/>
<path d="M1466 3114 c-9 -8 -16 -18 -17 -22 0 -4 -2 -14 -4 -23 -34 -175 -23
-527 21 -651 7 -21 11 -38 8 -38 -13 0 65 -128 99 -163 90 -92 217 -98 311
-16 41 36 104 146 121 214 5 17 9 32 10 35 14 47 25 92 30 120 3 19 8 46 10
60 10 50 20 145 31 301 l6 96 -27 21 c-51 40 -124 22 -126 -31 -8 -238 -18
-353 -36 -397 -3 -8 -7 -19 -7 -25 -8 -60 -59 -196 -86 -228 -27 -32 -66 -48
-94 -37 -63 24 -98 95 -124 255 -7 44 -8 290 -1 427 4 78 2 89 -16 102 -26 20
-89 20 -109 0z"/>
<path d="M4096 3111 c-17 -19 -17 -87 0 -286 17 -201 8 -350 -25 -438 -23 -60
-64 -74 -101 -35 -25 27 -60 120 -65 173 -5 53 -6 279 -1 330 17 177 17 191
-1 206 -24 20 -65 23 -108 9 -37 -12 -46 -29 -51 -94 -1 -23 -6 -81 -10 -131
-11 -128 -8 -332 5 -385 7 -25 14 -54 16 -65 9 -40 59 -130 93 -167 87 -96
217 -107 304 -25 28 26 86 121 93 153 2 11 9 38 15 61 26 108 27 227 5 483 -3
36 -8 94 -10 129 -6 83 -21 101 -90 101 -38 0 -56 -5 -69 -19z"/>
<path d="M7311 3120 c-119 -51 -176 -197 -173 -445 1 -101 8 -167 26 -240 43
-170 141 -277 254 -277 133 0 224 165 123 225 -40 23 -47 22 -87 -18 -38 -38
-51 -37 -90 7 -70 78 -103 382 -54 496 37 86 107 94 158 19 30 -46 65 -63 105
-53 43 10 54 92 23 157 -23 47 -99 116 -137 125 -49 12 -125 14 -148 4z"/>
<path d="M9782 3093 c-74 -48 -126 -193 -102 -283 15 -56 48 -90 137 -143 84
-51 133 -90 133 -107 0 -5 4 -10 8 -10 15 0 44 -74 49 -125 4 -41 2 -53 -15
-68 -45 -41 -116 -27 -174 35 -21 22 -38 43 -38 48 0 16 -31 19 -65 5 -42 -18
-69 -56 -61 -88 5 -22 106 -146 106 -131 0 4 10 -2 23 -13 12 -12 46 -29 74
-38 119 -39 244 12 286 115 19 44 15 148 -8 205 -64 164 -156 281 -264 337
-24 12 -45 28 -48 34 -7 18 25 81 44 88 29 12 82 -6 115 -38 39 -36 50 -39 90
-31 62 14 59 69 -7 138 -88 90 -207 119 -283 70z"/>
<path d="M9045 3088 c-44 -23 -47 -41 -30 -163 3 -22 8 -71 11 -110 2 -38 7
-97 9 -130 3 -33 7 -136 10 -230 3 -93 7 -182 10 -197 7 -31 48 -51 91 -44 16
3 47 8 69 11 22 4 65 15 95 25 163 53 253 145 287 290 12 56 2 176 -19 229 -6
14 -12 31 -13 37 -6 24 -59 98 -100 139 -40 41 -126 92 -165 100 -9 2 -40 10
-68 19 -29 8 -52 13 -52 10 0 -3 -8 0 -19 5 -29 16 -94 21 -116 9z m180 -172
c125 -44 196 -120 220 -236 21 -102 -14 -198 -93 -249 -50 -33 -140 -62 -148
-49 -4 6 -8 61 -10 122 -2 61 -5 138 -8 171 -3 33 -8 104 -12 158 -7 106 -9
104 51 83z"/>
<path d="M7870 2980 c-63 -18 -150 -86 -150 -116 0 -8 -3 -14 -8 -14 -9 0 -37
-65 -48 -112 -1 -5 -2 -9 -3 -10 -12 -15 -17 -192 -8 -238 29 -132 96 -223
199 -269 107 -49 222 -35 323 39 54 40 105 96 105 116 0 7 4 14 10 16 21 7 53
124 56 204 8 181 -84 304 -276 372 -49 17 -160 24 -200 12z m175 -160 c68 -32
117 -73 138 -114 58 -112 -16 -293 -145 -353 -35 -17 -48 -18 -84 -9 -118 31
-171 136 -150 300 22 163 120 235 241 176z"/>
</g>
</svg>
