<?xml version="1.0" encoding="utf-8"?>
<!-- Generator: Adobe Illustrator 22.1.0, SVG Export Plug-In . SVG Version: 6.00 Build 0)  -->
<svg version="1.1" id="Lag_1" xmlns="http://www.w3.org/2000/svg" xmlns:xlink="http://www.w3.org/1999/xlink" x="0px" y="0px"
	 viewBox="0 0 536.8 385.2" style="enable-background:new 0 0 536.8 385.2;" xml:space="preserve">
<style type="text/css">
	.st0{fill:#FFFFFF;}
</style>
<title>Aktiv 1</title>
<g id="Lag_2_1_">
	<g id="Layer_6">
		<path class="st0" d="M394.5,43c-11.3-8.8-26.3-8.5-39.6-12.1c-0.3-0.1-0.7-0.2-1-0.3c-0.8-0.2-1.6-0.4-2.5-0.3
			c-25.4-2.9-52.3,7-66.5,29.1c-14.7,23-10.8,54.7,9.4,73.1c20,18.1,48.9,22.6,73.4,11.4c22.9-10.5,38.6-33.8,41.4-58.6
			C410.8,70.3,406.9,52.7,394.5,43z M368.9,126c-17,11.5-39.2,11.9-56.7,1.2c-17.9-10.6-25.7-32.4-18.6-51.9
			c7.9-22,34-33.6,56.2-30.3c9.9,2.8,20.7,2.9,30.2,6.8s13.7,14.2,14.3,23.9C395.5,95.3,385.2,115.2,368.9,126z"/>
		<path class="st0" d="M375.9,59.6c-7.1-5.7-16.2-5.7-24.6-7.9c-0.3-0.1-0.7-0.2-1-0.3c-0.9-0.3-1.8-0.4-2.7-0.3
			c-16.3-1.5-33,4.7-42.1,18.9c-9.5,14.8-7,35.4,5.9,47.3c12.9,11.9,31.7,14.9,47.6,7.7c14.8-6.8,25.1-21.9,26.7-38
			C386.5,77.2,383.8,66,375.9,59.6z"/>
		<path class="st0" d="M532.5,240.2c0.4-22.7,1.3-45.3,2.5-67.9c1.3-24.3,3.8-48.4-0.7-72.6c-2.4-13-4.5-25.5-4-38.8
			c0.6-14.1,3.2-27.9,5.7-41.7c0.9-4.7-2-9.5-7.2-9.5h-0.1L358.9,4.9l-0.5-0.1c-0.8-0.2-1.6-0.4-2.5-0.3c-8.1-1-16.3-1.1-24.4-0.3
			l-3-0.1C262.1,2.2,195.6,0,129.1,0C91.3,0,53.6,0.7,15.9,2.1c-4.1,0.1-7.4,3.4-7.5,7.5c0,24-0.8,48-1.2,72.1
			c-0.4,25.2-0.4,50.5-1.8,75.7C4,182.1,0,206.6,0,231.4c0,24,2.3,47.9,3.7,71.8s2.8,47.9,4.4,71.8c0.2,3.8,3.2,7.9,7.5,7.5
			c16.5-1.6,33-0.9,49.4-0.3s33,1.2,49.5,1.5c33.7,0.8,67.4,1.1,101,1.3c66.4,0.3,132.7,0.1,199.1,0.1c38.1,0,76.2-0.1,114.3-0.2
			c3.8,0,7.8-3.4,7.5-7.5C533.1,331.8,531.7,286,532.5,240.2z M444.8,43l23.7,19.9c-7.5,6.3-14.6,12.6-22.4,18.7
			C445.7,68.7,445.3,55.9,444.8,43z M446.2,88.5c6.6,5.3,12.8,10.8,19.4,16c2.3,1.9,2.2,3.2-0.1,5.1c-6.3,5-12.3,10.1-18.5,15.3
			C446.8,112.7,446.6,100.6,446.2,88.5z M447.7,221.9c7,5.7,13.8,11.5,20.7,17.3c-7.1,5.9-14.2,11.7-21,17.7
			C447.6,245.3,447.7,233.6,447.7,221.9z M447.7,177.8c6.1,4.9,11.7,10,17.9,14.9c2.4,1.9,2.4,3.1,0.1,5c-6.1,4.9-11.8,10-17.9,14.9
			C447.8,200.9,447.8,189.4,447.7,177.8L447.7,177.8z M447.2,133.2l21.3,17.9c-7,5.8-13.8,11.6-20.8,17.3
			C447.6,156.7,447.4,145,447.2,133.2L447.2,133.2z M447.2,272.2l0.1-6.7c4,3.5,8.1,7,12.3,10.4c-4.4-0.1-8.7-0.3-13.1-0.4
			C447,274.5,447.2,273.3,447.2,272.2L447.2,272.2z M465.2,276.1c-4.4-4.2-9.1-8.2-14.1-12.1c-2.6-2.1-2.4-3.4,0-5.4
			c6.8-5.4,13.1-11.1,20-16.5c2.7-2.1,2.9-3.5,0.1-5.6c-7-5.4-13.4-11-20.1-16.5c-2.3-1.9-2.9-3.2-0.1-5.4
			c8.1-6.4,15.7-13,23.3-19.4c-8-6.7-15.5-13.1-23.5-19.5c-2.4-1.9-2.3-3.2,0-5.1c6.9-5.6,13.5-11.3,20.5-16.8
			c2.4-1.9,2.6-3.3,0.1-5.3c-6.9-5.4-13.2-11.1-20.1-16.5c-2.6-2.1-2.9-3.5-0.1-5.8c8-6.3,15.4-12.8,23.1-19.3
			c-7.4-6.1-14.2-12.2-21.8-18c-3.7-2.8-4.1-4.8-0.2-7.8c7.8-5.8,14.6-12.1,21.9-18.3c-7.6-6.3-14.9-12.5-22.5-18.7
			c-2.8-2.3-3.5-4-0.3-6.5c6.2-4.8,12-9.7,17.9-14.7l4.2,0.1c-5.8,4.9-11.5,9.8-17.6,14.6c-2.9,2.2-3,3.8-0.1,6.1
			c7.8,6.2,15.2,12.6,23,19c-7.5,6.3-14.7,12.5-22.4,18.6c-3.1,2.4-3.7,4.1-0.2,6.8c8,6.1,15.2,12.5,22.6,18.8
			c-8,6.7-15.5,13.2-23.5,19.5c-2.4,1.9-2.4,3.1,0,5c6.7,5.3,12.7,10.9,19.6,16.2c3.2,2.4,3.6,4.1,0.2,6.7
			c-6.8,5.1-12.8,10.6-19.2,15.8c-2.5,2-3.1,3.5-0.2,5.7c8,6.3,15.4,12.8,23.1,19.3c-7.8,6.6-15.3,13.1-23.2,19.4
			c-2.6,2-2.5,3.4,0,5.4c7.9,6.3,15.5,12.8,23.3,19.4c-7.8,6.5-15.4,13-23.3,19.3c-2.5,2-2.6,3.4-0.1,5.4c5.1,4,10.2,8,14.8,12.2
			L465.2,276.1z M482.2,276.4c-4.7-4-9.4-8-14.4-11.8c-3.4-2.6-2.8-4.4,0.2-6.7c7.7-6.1,15-12.3,22.4-18.6l-26.3-22.1
			c8-6.7,15.6-13.1,23.5-19.5c2.3-1.9,2.5-3.1,0.1-5c-6.9-5.4-13-11.1-20-16.5c-3.2-2.4-2.7-4.1,0.2-6.4
			c6.6-5.2,12.5-10.7,19.3-15.8c3.1-2.4,2.6-3.9-0.1-6.1c-6.7-5.3-12.9-10.9-19.7-16.1c-2.8-2.1-2.6-3.6,0.1-5.7
			c6.9-5.4,13.2-11.1,20-16.5c2.5-2,2.5-3.4,0-5.4c-7-5.6-13.5-11.3-20.5-16.9c-2.2-1.8-2.6-3,0-5c7-5.5,13.2-11.3,20.3-16.8
			c2.9-2.2,2.4-3.7-0.2-5.7c-7-5.5-13.4-11.3-20.4-16.8c-2.3-1.8-2-2.9,0.1-4.7c6.1-5,12-10,17.9-15l14,0.4l-21.4,19.8l24.5,21.3
			c-7.2,6.2-14,12.5-21.5,18.5c-2.9,2.3-2.6,3.8,0,6c6.4,5.3,12.4,10.8,18.8,16.1c2.2,1.8,2.1,3.1-0.1,4.9c-7.5,6.2-14.5,12.5-22,19
			l24.8,21.5c-7.4,6.4-14.5,12.7-21.9,18.9c-2.3,1.9-2.4,3.2,0,5.2c6.6,5.4,12.6,11,19.2,16.4c2.2,1.8,2.3,3.1,0,4.9
			c-6.6,5.4-12.5,11.1-19.2,16.4c-2.5,2-2.4,3.3,0,5.2c7.4,6.2,14.5,12.5,21.9,18.9c-7.3,6.3-14.7,12.5-21.6,18.9
			c-1.2,1.1-1.9,3.4-0.8,4.4c5.9,5.5,12.2,10.9,18.6,16.2C492.8,276.5,487.5,276.4,482.2,276.4L482.2,276.4z M502.4,276.5
			c-5.3-5.5-10.9-10.7-16.8-15.5c-2.5-2-2.3-3.4,0-5.2c6.4-5.3,12.4-10.8,18.9-16.1c2.5-2,2.7-3.4,0.1-5.5
			c-6.6-5.2-12.6-10.7-18.9-16.1c-2.2-1.8-2.7-3.2-0.1-5.3c7.7-6.2,14.8-12.7,22-19c-7.5-6.5-14.6-12.8-22.1-19
			c-2.2-1.9-2.2-3.2,0-4.9c6.5-5.4,12.7-11,19.3-16.4c2.3-1.9,2.5-3.2,0.1-5.2c-6.5-5.3-12.5-10.8-18.9-16.1c-2.4-2-2.7-3.4-0.1-5.6
			c7.5-6.1,14.5-12.5,21.7-18.8c-6.9-6-13.4-11.9-20.5-17.6c-3.4-2.8-3.9-4.7-0.1-7.6c7.3-5.7,13.8-11.8,20.6-17.8
			c-7.1-6.2-14-12.2-21.2-18.2c-2.7-2.2-3.3-3.9-0.3-6.3c6.6-5.3,12.9-10.8,19.2-16.3l4,0.1c-6.2,5.5-12.4,11-18.9,16.3
			c-2.7,2.2-2.8,3.7-0.1,5.9c7.4,6,14.4,12.2,21.7,18.5c-7.1,6.1-13.9,12.2-21.1,18.1c-2.9,2.4-3.5,4-0.2,6.6
			c7.5,6,14.3,12.2,21.3,18.3c-7.5,6.5-14.6,12.8-22.1,19c-2.2,1.9-2.2,3.1,0,4.9c6.3,5.2,12,10.6,18.4,15.8c3,2.4,3.4,4,0.2,6.5
			c-6.4,5-12,10.3-18.1,15.4c-2.3,1.9-2.9,3.4-0.2,5.6c7.6,6.1,14.5,12.5,21.8,18.8c-7.4,6.4-14.4,12.8-21.9,18.9
			c-2.4,2-2.4,3.3,0,5.2c7.5,6.2,14.6,12.5,22,18.9c-7.4,6.3-14.5,12.6-21.9,18.8c-2.3,1.9-2.5,3.3-0.1,5.2
			c6.1,4.8,11.9,9.9,17.4,15.2l0.2,0.2L502.4,276.5z M520.6,160.7c-0.6,10-1,20-1.5,30.1c-6.1-5.1-11.6-10.3-17.9-15.3
			c-3-2.4-2.5-4,0.2-6.2c6.2-5.1,11.7-10.4,18.1-15.4c0.6-0.4,1.1-1,1.6-1.6C520.9,155,520.7,157.8,520.6,160.7L520.6,160.7z
			 M521.2,149.9c-0.5-0.8-1.1-1.5-1.8-2c-6.3-5.2-12.1-10.6-18.5-15.7c-2.6-2.1-2.4-3.5,0.1-5.5c6.5-5.3,12.4-10.8,18.9-16.1
			c0.3-0.2,0.6-0.5,0.8-0.8c0.8,4.8,1.2,9.6,1.4,14.4C522.2,132.7,521.8,141.3,521.2,149.9L521.2,149.9z M515.5,71.2
			c0.1,5.9,0.7,11.9,1.6,17.8c0.9,5.5,2,11,2.9,16.5l-0.1-0.1c-6.6-5.4-12.8-11-19.3-16.4c-2.1-1.7-2.4-2.9-0.1-4.8
			C505.7,79.9,510.4,75.4,515.5,71.2L515.5,71.2z M519.9,24.5c-2.1,11.4-3.5,22.8-4.3,34.3c-5.1-4.4-10-8.8-15.3-13.2
			c-2.1-1.8-1.9-2.9,0-4.5c6.5-5.5,12.8-11.1,19.2-16.7L519.9,24.5z M501.3,261.6c-3.2-2.6-2.6-4.3,0.2-6.6
			c5.5-4.5,10.7-9.1,16-13.6c-0.2,11.3-0.3,22.6-0.2,33.9C512,270.6,506.9,266,501.3,261.6z M497.8,215.4c7.1-6.2,13.9-12.1,21-18
			c-0.5,11.7-0.9,23.5-1.1,35.2L497.8,215.4z M462.8,22.8l-18.2,16.3c-0.2-5.6-0.4-11.2-0.7-16.8L462.8,22.8z M432.4,260.1
			c-6.1-16-12.7-31.9-21.2-46.8c-9.2-16.2-20.4-31.3-27.9-48.4c22.1-11.8,39.3-32,48.4-55.3C432.9,159.8,433.1,209.9,432.4,260.1z
			 M306.5,170.7c2,0.7,4,1.3,6,1.9c0.2,0.4,0.3,0.8,0.5,1.2c17.2,30.9,34.1,62.3,45,96.1c-6.3-0.5-12.6-1.1-18.9-1.7
			c0-0.1,0-0.2,0-0.3C330.9,234.7,320.3,201.9,306.5,170.7z M323.4,266.5c-3.3-0.3-6.6-0.7-9.9-1l-3.5-0.4c0-0.1,0-0.2-0.1-0.3
			c-6.3-25.1-14.3-49.9-22.7-74.4c-4.5-13.2-9.2-26.5-14.3-39.5l0.3,0.3c3.8,3.4,7.8,6.5,12.1,9.2c0.1,0.3,0.2,0.6,0.4,0.9
			C302.1,194.8,314.1,230.4,323.4,266.5L323.4,266.5z M331.4,175.8c3.8,0.3,7.6,0.3,11.4,0.2c6.5,17.9,15.2,34.9,23.5,52
			c7.3,14.9,14.7,29.7,22.5,44.4c-4.9-0.3-9.7-0.7-14.6-1.1c-0.1-0.3-0.1-0.7-0.2-1C363.9,237.1,348,206,331.4,175.8L331.4,175.8z
			 M380,221.9c-7.7-15.8-15.9-31.4-22-47.9c4-0.8,7.9-1.9,11.7-3.2c7.4,16.6,17.6,31.4,26.8,47c10.5,17.9,18,37.1,25.2,56.4
			c-5.3-0.3-10.6-0.6-15.8-0.9c-0.2-0.9-0.5-1.7-0.9-2.5C396.3,254.8,388.1,238.4,380,221.9z M428.9,21.9c0.2,4.8,0.4,9.5,0.6,14.3
			c-3.3-5.6-7.7-10.6-12.9-14.5l-0.2-0.2L428.9,21.9z M330.7,19.1l25.6,0.7C371,23.7,386.9,24,401,29.9
			c14.9,6.4,21.7,22.7,22.7,38.1c2,30.8-14.3,61.9-39.7,79c-26.9,18.1-61.9,18.7-89.4,1.5c-28.1-17.4-40.1-51.6-28.4-82.7
			C276.2,39.3,303,22.7,330.7,19.1L330.7,19.1z M257,17.1c10.7,0.3,21.3,0.5,32,0.9c-12.1,7-22.3,16.8-29.8,28.5
			c-1.5,2.3-2.8,4.8-4.1,7.3c0.8-11.2,1.5-22.5,2.3-33.7C257.5,19.1,257.4,18,257,17.1L257,17.1z M248.5,162.7
			c0.2-9.6,0.6-19.2,1.1-28.7c9.1,20.1,16.5,41.1,23.6,61.9c7.6,22.4,14.9,44.9,20.9,67.9c-14.6-1.2-29.2-1.9-43.7-1.7
			C249.1,228.9,247.9,195.8,248.5,162.7L248.5,162.7z M233.5,199c0.3,21.2,1.1,42.4,1.9,63.6c-7.5,0.5-15.1,1.2-22.6,2.4
			c-16.1,2.4-31.9,4.3-48.2,4.5c-10,0.1-20,0.1-30.1,0.1c23.3-65.9,50.7-130.4,82-193c8.2-16.5,16.8-32.8,25.5-49
			C238.1,84.7,232.6,141.7,233.5,199L233.5,199z M169.3,15.3C154.7,42.7,141.7,71,130.5,100c-9.3-29.1-20.7-57.4-34.4-84.7
			C120.5,15,144.9,15,169.3,15.3z M79.6,15.5c0.1,0.4,0.3,0.8,0.4,1.1c17.9,34.8,32.1,71.4,42.5,109.1c2.1,7.5,12.1,6.7,14.5,0
			c13.2-37.3,29.3-73.4,48.2-108.1c0.4-0.7,0.6-1.4,0.8-2.1c4.1,0.1,8.1,0.1,12.2,0.2c-26.6,49.2-49.7,100.2-69.3,152.6
			C112.9,115.7,92.5,64.7,67.7,15.7L79.6,15.5z M51.3,16.1c0.2,0.6,0.4,1.1,0.7,1.7c29,56.4,52,115.6,68.8,176.7
			c2.1,7.5,12.1,6.7,14.5,0c21.3-60.4,47.3-118.9,77.9-175.2c0.6-1,0.9-2.1,1-3.3h1.2l15.5,0.4c-34.2,62.8-64.4,127.7-90.5,194.3
			c-4.7,11.9-9.2,23.8-13.5,35.7c-17.9-61-40.2-120.7-66.7-178.6C52.3,50.5,44,33.4,35.3,16.5C40.7,16.4,46,16.2,51.3,16.1z
			 M15.1,241c-0.6-24.8,2.8-49.2,4.6-73.9c1.8-25.1,1.8-50.4,2.3-75.5c0.4-21.9,1-43.9,1.3-65.8c31,60.9,57.1,124.1,78.2,189.1
			c5.9,18,11.3,36.2,16.3,54.5h-1.2c-33.4-0.1-66.8-0.3-100.2-0.3C15.9,259.7,15.4,250.4,15.1,241z M327.6,370.2
			c-66.4,0-132.9,0.3-199.3-1c-18.8-0.4-37.6-0.9-56.4-1.6C55.5,366.9,39,366,22.6,367c-1.2-18.6-2.3-37.2-3.4-55.8
			c-0.5-9-1.2-18.1-1.8-27.1c29,0,58.1,0.2,87.2,0.3c32,0.1,64.7,1.9,96.5-2.6c16.2-2.3,32.1-4.7,48.5-5c17.1-0.2,34.2,0.7,51.1,2.4
			c33.8,3.2,67.4,7.3,101.3,9.4c38.1,2.4,76.2,3.3,114.4,2.7c0.4,0,0.7,0,1.1-0.1c0,2,0,3.9,0.1,5.9c0.5,24.3,1.7,48.6,3.4,72.9
			C456.5,370.2,392.1,370.2,327.6,370.2z"/>
		<path class="st0" d="M187.4,309.5c-0.6,9-2,18.3-0.6,27.2c1.1,7.3,5.7,16.8,14,16.8c8.8-0.1,12.3-10.9,13-18.3
			c0.9-9.5-0.9-19-1.2-28.5c-0.1-3.4-8.8-3.2-8.7,0c0.4,7.5,1.1,14.9,1.3,22.4c0.2,3.2-0.1,6.3-0.8,9.4c-0.4,1.6-1.7,6.1-3.9,6
			c-1.9,0-3.5-3.4-4.1-4.9c-1-2.8-1.5-5.7-1.5-8.7c-0.2-7.2,0.1-14.3,1.1-21.4C196.5,305.8,187.9,306,187.4,309.5L187.4,309.5z"/>
		<path class="st0" d="M243.8,345.7c-2.4-7.7-6.1-15-10.9-21.6c1.3-2.7,2.8-5.2,4.5-7.6c2.4-3.4,4.5-7,6.1-10.8
			c1.8-4.1-5.3-6.6-7.8-2.6c-1.9,3-4,6.4-5.8,9.2c-1.1,1.8-2.2,3.6-3.2,5.5c-0.3-4.6-0.7-9.2-1.3-13.9c-0.5-3.9-8.4-1.4-7.8,2.6l0,0
			c2.4,12.8,2.4,25.9,2,39.2c-0.1,5,7.8,7.5,7.8,2.6c0-5.8,0-11.5-0.1-17.1c3.8,5.2,6.8,11,8.8,17.2c0.8,2.4,2.7,2.4,5,1.6
			C242.9,349.2,244.6,348.2,243.8,345.7z"/>
		<path class="st0" d="M274.6,348.6c-3.4-15.1-6.9-30-12.8-44c-0.9-2.1-3.6-3-5.2-1.6c-2.6,2.1-3.3,4.9-3.9,8.4
			c-0.7,4.1-1.3,8.2-1.9,12.3c-1.2,8.2-2.1,16.5-2.9,24.8c-0.2,2.4,1.5,3.2,3.4,3.2c2.3,0,4-0.8,4.2-3.2c0.4-4.2,0.9-8.4,1.4-12.6
			c2.3,0.3,4.6,0.1,6.8-0.6c1.3,5.2,2.5,10.4,3.6,15.7C268,354.7,275.4,352.1,274.6,348.6z M258.1,326.9c0.3-2.4,0.7-4.8,1.1-7.3
			c0.8,2.3,1.5,4.6,2.2,7C260.2,326.9,259.1,327,258.1,326.9L258.1,326.9z"/>
		<path class="st0" d="M351.1,342c-3.1-0.5-6.2-0.7-9.2-0.6c0-4.2-0.1-8.4-0.4-12.5l0.4,0l5.9,0.4c2.1,0.1,2.9-2,2.7-4.2
			c-0.2-2.5-0.8-4.2-3.1-4.4l-5.9-0.4c-0.2,0-0.5,0-0.7,0.1c-0.2-1.7-0.3-3.3-0.5-5l-0.4-3.3l-0.1-0.6l2.9-0.3l6-0.6
			c4.1-0.4,3.4-8.9,0-8.5l0,0l-7,0.7c-2.1,0.2-4.4,0.1-6.3,0.9c-4.9,1.9-3.6,7.5-3.1,11.7c1.2,10.1,1.7,20.3,1.5,30.5
			c-0.1,3.1,2.6,4.5,5.1,4.1c3.4-0.4,6.8-0.4,10.1,0.2C351.6,350.6,353.4,342.3,351.1,342z"/>
		<path class="st0" d="M365.7,304.7c-7.3,2.4-8.9,12.6-9,20.2s0.9,17.6,5.6,23.6c4.3,5.4,12.5,6.5,16.2-0.4
			c2.7-4.9-3.6-10.2-6.2-5.3c-1.5,2.8-4.3-0.1-5.3-2c-1.8-3.6-2.4-8.4-2.6-12.5s-0.5-7.7,1.1-11.4c0.7-1.6,2.2-3.6,3.8-3.2
			c1,0.2,3.1,0.7,3.7,1.6c0.2,3.6,6.2,5.6,7.3,2.1C382.6,308.5,372.1,302.6,365.7,304.7z"/>
		<path class="st0" d="M506.9,336.9c-2.3-7.3-7.5-14.8-13.5-17.7c-0.6-0.4-1.3-0.7-2-1c-0.2-0.1-0.4-0.2-0.6-0.4
			c0.1-1.4,0.6-2.8,1.5-4c1.6-2,5.7-0.5,7,1.6c1.8,2.8,8.1,0.7,6.4-2c-2.9-7.1-13.3-11.4-18.1-6.2c-2.5,2.9-3.9,6.5-4.1,10.3
			c-0.2,3.7,1.8,7.2,5.1,8.8c5.1,2.7,11,6.1,11.8,13.5c0.4,3.6-2.1,4.8-4.9,4.4s-5-2.5-6.6-5.3s-8,1.7-6.4,4.4
			c3.8,6.4,10,10.7,16.6,9.2C506.6,350.8,509.4,344.9,506.9,336.9z"/>
		<path class="st0" d="M61.6,303.8c-4.7,10.3-8.8,20.9-12.3,31.7c-3.6-11.1-7.9-22-12.8-32.6c-1.3-2.9-8.1,1.5-6.7,4.6
			c6.6,14,11.9,28.6,15.8,43.6c1.1,4.2,6.4,4.4,7.5,0c3.6-14.9,9.1-28.8,15.2-42.6C69.8,304.9,63.1,300.3,61.6,303.8z"/>
		<path class="st0" d="M328.5,345.9c-1.6-5.7-4.7-10.9-9.1-14.9c3.7-2.3,6.9-5.6,7.5-10.2c0.9-7.2-4.4-14.4-9.8-16.8
			c-2.8-1.4-6.1-1.4-9-0.1c-3,1.6-3.3,4.7-3.6,8.2c-1.2,11.9-1.8,23.8-1.7,35.7c0,3.6,7.4,3.5,7.4,0l0,0c0-4.3,0.1-8.5,0.2-12.8
			c5.4,2,9.2,6.7,11.1,13.1C322.3,351.6,329.5,349.2,328.5,345.9z M319.3,318c0.3,4.3-5.2,6.7-8.6,7.9c0-4.7,0.4-9.4,1.2-14.1
			C314.8,311.3,319.1,314.6,319.3,318z"/>
		<path class="st0" d="M449.1,343.9c-2.4-5.5-6.4-10.2-11.4-13.5c3.5-3.1,6.2-7,6.2-11.8c-0.1-7.5-6.5-13.9-12.4-15.2
			c-3.2-0.9-6.5-0.2-9.2,1.7c-2.8,2.2-2.7,5.5-2.5,9.1c0.4,12.3,1.5,24.6,3.3,36.8c0.5,3.7,8.1,2.2,7.6-1.4l0,0
			c-0.6-4.4-1.2-8.7-1.6-13.1c5.8,1,10.3,5,13.1,11.2C443.6,350.9,450.5,347.1,449.1,343.9z M435.7,317.1c0.9,4.4-4.4,7.8-7.7,9.8
			c-0.6-4.9-0.9-9.7-0.8-14.6C430.2,311.2,435,313.7,435.7,317.1z"/>
		<path class="st0" d="M480,329c-0.2-6.1-2.8-11.9-7.3-16c-5.4-4.8-11.3-5.2-17.9-7c-2.1-0.6-5,1.1-4.7,3.6
			c1.5,12.2,2.2,24.5,2.2,36.8c0,0.6,0.1,1.2,0.4,1.7c0.5,1.4,1.9,2.2,3.3,2C468.5,349.1,480.5,343.4,480,329z M459.7,342.1
			c-0.1-9.3-0.7-18.6-1.6-27.8c2.3,0.3,4.6,1.1,6.7,2.2c4.1,2.3,6.9,6.3,7.6,10.9C473.7,336.6,467.3,340.7,459.7,342.1L459.7,342.1z
			"/>
		<path class="st0" d="M409.4,315.5L409.4,315.5c-7.3-5.2-18.4-6.7-23.7,2.1s-5.1,23.1,3.1,30s19,3.5,24.7-4.8
			S419.2,320.6,409.4,315.5z M393.4,341.6c-4.7-4.1-4.2-11.5-2.5-17c2.1-6.8,8.5-7.3,13.8-3.4c0.3,0.3,0.6,0.6,1,0.8
			C417.1,327.9,404.2,351,393.4,341.6L393.4,341.6z"/>
		<path class="st0" d="M96.9,309.9c-0.2,6.7-0.2,13.3-1.7,19.8c-1,4.4-3.4,15.3-8.6,14.9c-5.5-0.5-6.7-10.9-7.3-15.8
			c-0.8-7,0-13.9,0.6-20.9c0.4-4.5-7.2-5.1-7.6-0.7c-2.1,13.3-3,44.6,13.7,46.4c16.2,1.8,17.9-30.4,18.6-42.9
			C104.7,307,97,305.6,96.9,309.9z"/>
		<path class="st0" d="M146.6,306.5c0-4.8-5.1-5.5-7.2-2.1c-3.9,6.2-7.8,12.2-11.9,18.2c-3.2-6.2-7-12-11.6-17.2
			c-2.4-2.8-6.5-0.5-6.5,3.3c0,13.4-1.4,26.6-2,40c-0.2,4,7.3,6.2,7.4,2.2c1.1-10.2,1.7-20.4,2.1-30.7c2.6,4,4.9,8.3,6.8,12.7
			c0.8,1.8,2.9,2.6,4.7,1.8c0.5-0.2,1-0.6,1.3-1c3.2-4.6,6.3-9.3,9.4-14c0.1,9.9,0.3,19.7,0.3,29.6c0,4.3,7.7,3.8,7.7-0.1
			C147.1,334.9,146.8,320.7,146.6,306.5z"/>
		<path class="st0" d="M181.9,337.3c-0.5-6.5-4-10-8.4-11.6c2.6-2.9,3.8-6.7,3.4-10.5c-0.5-8-4.2-13.3-11.7-12.6
			c-6.4,0.6-14.1,4.2-13.5,12.7c0.9,11.9,2.8,23.8,4.2,35.7c0.1,0.7,0.3,1.4,0.7,2.1c0.6,1.4,2.1,2.2,3.6,1.8
			C168.2,352.9,182.8,350.1,181.9,337.3z M160.3,313.4c1.4-0.8,2.9-1.4,4.4-1.8c1.7-0.3,3.3-0.4,4.2,1.5c2.9,5.5-4.6,9.5-8.6,11.9
			c-0.5-2.9-0.8-5.8-0.9-8.7C159.4,314.6,158.8,314,160.3,313.4z M173.5,340.3c-0.9,1.8-5,2.9-6.6,3.4c-1.3,0.5-2.6,0.8-3.9,1.2
			l-1.3-10.8C165.4,333.4,177.7,332.3,173.5,340.3z"/>
	</g>
</g>
</svg>
