<?xml version="1.0" encoding="UTF-8"?>
<svg width="614px" height="8px" viewBox="0 0 614 8" version="1.1" xmlns="http://www.w3.org/2000/svg" xmlns:xlink="http://www.w3.org/1999/xlink">
    <!-- Generator: Sketch 54.1 (76490) - https://sketchapp.com -->
    <title>Stroke 1 Copy 15</title>
    <desc>Created with Sketch.</desc>
    <g id="Page-2" stroke="none" stroke-width="1" fill="none" fill-rule="evenodd">
        <g id="Artboard-Copy-10" transform="translate(-100.000000, -2054.000000)" stroke="#C95B28">
            <g id="Group-10" transform="translate(100.000000, 1776.000000)">
                <polyline id="Stroke-1-Copy-15" points="1 278 7.72206925 286 14.4452229 278 21.1705453 286 27.8936989 278 34.6157682 286 41.336753 278 48.0566535 286 54.776554 278 61.4964545 286 68.2174394 278 74.9395086 286 81.6637466 278 88.389069 286 95.1122227 278 101.834292 286 108.556361 278 115.277346 286 121.998331 278 128.7204 286 135.443554 278 142.168876 286 148.894199 278 155.616268 286 162.339421 278 169.060406 286 175.78356 278 182.506714 286 189.232036 278 195.957358 286 202.680512 278 209.403666 286 216.126819 278 222.849973 286 229.57638 278 236.301702 286 243.024856 278 249.748009 286 256.472247 278 263.19757 286 269.923976 278 276.648214 286 283.371368 278 290.096691 286 296.823097 278 303.54842 286 310.272658 278 316.99798 286 323.725471 278 330.450794 286 337.175032 278 343.900354 286 350.626761 278 357.353168 286 364.07849 278 370.804897 286 377.530219 278 384.256626 286 390.983033 278 397.704018 286 404.425002 278 411.147072 286 417.875647 278 424.598801 286 431.319786 278 438.046192 286 444.772599 278 451.495753 286 458.221075 278 464.948566 286 471.672804 278 478.400296 286 485.127787 278 491.855278 286 498.581685 278 505.31026 286 512.037751 278 518.766327 286 525.497071 278 532.225647 286 538.955307 278 545.684966 286 552.409204 278 559.13778 286 565.86744 278 572.598184 286 579.327844 278 586.060757 286 592.789333 278 599.52333 286 606.262749 278 613 286"></polyline>
            </g>
        </g>
    </g>
</svg>