<?xml version="1.0" encoding="UTF-8"?>
<svg width="614px" height="8px" viewBox="0 0 614 8" version="1.1" xmlns="http://www.w3.org/2000/svg" xmlns:xlink="http://www.w3.org/1999/xlink">
    <!-- Generator: Sketch 54.1 (76490) - https://sketchapp.com -->
    <title>Stroke 1</title>
    <desc>Created with Sketch.</desc>
    <g id="Page-2" stroke="none" stroke-width="1" fill="none" fill-rule="evenodd">
        <g id="Artboard-Copy-10" transform="translate(-615.000000, -1150.000000)" stroke="#6B3758">
            <g id="Group-5" transform="translate(616.000000, 1150.000000)">
                <polyline id="Stroke-1" points="0 0 6.72206925 8 13.4452229 0 20.1705453 8 26.8936989 0 33.6157682 8 40.336753 0 47.0566535 8 53.776554 0 60.4964545 8 67.2174394 0 73.9395086 8 80.6637466 0 87.389069 8 94.1122227 0 100.834292 8 107.556361 0 114.277346 8 120.998331 0 127.7204 8 134.443554 0 141.168876 8 147.894199 0 154.616268 8 161.339421 0 168.060406 8 174.78356 0 181.506714 8 188.232036 0 194.957358 8 201.680512 0 208.403666 8 215.126819 0 221.849973 8 228.57638 0 235.301702 8 242.024856 0 248.748009 8 255.472247 0 262.19757 8 268.923976 0 275.648214 8 282.371368 0 289.096691 8 295.823097 0 302.54842 8 309.272658 0 315.99798 8 322.725471 0 329.450794 8 336.175032 0 342.900354 8 349.626761 0 356.353168 8 363.07849 0 369.804897 8 376.530219 0 383.256626 8 389.983033 0 396.704018 8 403.425002 0 410.147072 8 416.875647 0 423.598801 8 430.319786 0 437.046192 8 443.772599 0 450.495753 8 457.221075 0 463.948566 8 470.672804 0 477.400296 8 484.127787 0 490.855278 8 497.581685 0 504.31026 8 511.037751 0 517.766327 8 524.497071 0 531.225647 8 537.955307 0 544.684966 8 551.409204 0 558.13778 8 564.86744 0 571.598184 8 578.327844 0 585.060757 8 591.789333 0 598.52333 8 605.262749 0 612 8"></polyline>
            </g>
        </g>
    </g>
</svg>